<?xml version="1.0" encoding="utf-8" standalone="no"?>
<!DOCTYPE svg PUBLIC "-//W3C//DTD SVG 1.1//EN"
  "http://www.w3.org/Graphics/SVG/1.1/DTD/svg11.dtd">
<svg xmlns:xlink="http://www.w3.org/1999/xlink" width="432pt" height="324pt" viewBox="0 0 432 324" xmlns="http://www.w3.org/2000/svg" version="1.1">
 <title>Bayesian Normal Update</title>
 <metadata>
  <rdf:RDF xmlns:dc="http://purl.org/dc/elements/1.1/" xmlns:cc="http://creativecommons.org/ns#" xmlns:rdf="http://www.w3.org/1999/02/22-rdf-syntax-ns#">
   <cc:Work>
    <dc:type rdf:resource="http://purl.org/dc/dcmitype/StillImage"/>
    <dc:title>Bayesian Normal Update</dc:title>
    <dc:description>Prior N(0,4), rescaled likelihood N(2,1), and posterior N(1.6,0.8); normal second parameters are variances.</dc:description>
    <dc:format>image/svg+xml</dc:format>
    <dc:creator>
     <cc:Agent>
      <dc:title>render_bayesian_figures.py</dc:title>
     </cc:Agent>
    </dc:creator>
   </cc:Work>
  </rdf:RDF>
 </metadata>
 <defs>
  <style type="text/css">*{stroke-linejoin: round; stroke-linecap: butt}</style>
 </defs>
 <g id="figure_1">
  <g id="patch_1">
   <path d="M 0 324
L 432 324
L 432 0
L 0 0
z
" style="fill: #ffffff"/>
  </g>
  <g id="axes_1">
   <g id="patch_2">
    <path d="M 52.856099 279.904838
L 424.227885 279.904838
L 424.227885 28.397896
L 52.856099 28.397896
z
" style="fill: #ffffff"/>
   </g>
   <g id="matplotlib.axis_1">
    <g id="xtick_1">
     <g id="line2d_1">
      <defs>
       <path id="m45b42cd6ee" d="M 0 0
L 0 3.5
" style="stroke: #536475; stroke-width: 0.8"/>
      </defs>
      <g>
       <use xlink:href="#m45b42cd6ee" x="52.856099" y="279.904838" style="fill: #536475; stroke: #536475; stroke-width: 0.8"/>
      </g>
     </g>
     <g id="text_1">
      <text style="font-size: 15px; font-family: 'DejaVu Sans', 'Arial', 'Bitstream Vera Sans', 'Computer Modern Sans Serif', 'Lucida Grande', 'Verdana', 'Geneva', 'Lucid', 'Helvetica', 'Avant Garde', sans-serif; text-anchor: middle; fill: #536475" x="52.856099" y="298.301323" transform="rotate(-0 52.856099 298.301323)">−6</text>
     </g>
    </g>
    <g id="xtick_2">
     <g id="line2d_2">
      <g>
       <use xlink:href="#m45b42cd6ee" x="114.751397" y="279.904838" style="fill: #536475; stroke: #536475; stroke-width: 0.8"/>
      </g>
     </g>
     <g id="text_2">
      <text style="font-size: 15px; font-family: 'DejaVu Sans', 'Arial', 'Bitstream Vera Sans', 'Computer Modern Sans Serif', 'Lucida Grande', 'Verdana', 'Geneva', 'Lucid', 'Helvetica', 'Avant Garde', sans-serif; text-anchor: middle; fill: #536475" x="114.751397" y="298.301323" transform="rotate(-0 114.751397 298.301323)">−4</text>
     </g>
    </g>
    <g id="xtick_3">
     <g id="line2d_3">
      <g>
       <use xlink:href="#m45b42cd6ee" x="176.646695" y="279.904838" style="fill: #536475; stroke: #536475; stroke-width: 0.8"/>
      </g>
     </g>
     <g id="text_3">
      <text style="font-size: 15px; font-family: 'DejaVu Sans', 'Arial', 'Bitstream Vera Sans', 'Computer Modern Sans Serif', 'Lucida Grande', 'Verdana', 'Geneva', 'Lucid', 'Helvetica', 'Avant Garde', sans-serif; text-anchor: middle; fill: #536475" x="176.646695" y="298.301323" transform="rotate(-0 176.646695 298.301323)">−2</text>
     </g>
    </g>
    <g id="xtick_4">
     <g id="line2d_4">
      <g>
       <use xlink:href="#m45b42cd6ee" x="238.541992" y="279.904838" style="fill: #536475; stroke: #536475; stroke-width: 0.8"/>
      </g>
     </g>
     <g id="text_4">
      <text style="font-size: 15px; font-family: 'DejaVu Sans', 'Arial', 'Bitstream Vera Sans', 'Computer Modern Sans Serif', 'Lucida Grande', 'Verdana', 'Geneva', 'Lucid', 'Helvetica', 'Avant Garde', sans-serif; text-anchor: middle; fill: #536475" x="238.541992" y="298.301323" transform="rotate(-0 238.541992 298.301323)">0</text>
     </g>
    </g>
    <g id="xtick_5">
     <g id="line2d_5">
      <g>
       <use xlink:href="#m45b42cd6ee" x="300.43729" y="279.904838" style="fill: #536475; stroke: #536475; stroke-width: 0.8"/>
      </g>
     </g>
     <g id="text_5">
      <text style="font-size: 15px; font-family: 'DejaVu Sans', 'Arial', 'Bitstream Vera Sans', 'Computer Modern Sans Serif', 'Lucida Grande', 'Verdana', 'Geneva', 'Lucid', 'Helvetica', 'Avant Garde', sans-serif; text-anchor: middle; fill: #536475" x="300.43729" y="298.301323" transform="rotate(-0 300.43729 298.301323)">2</text>
     </g>
    </g>
    <g id="xtick_6">
     <g id="line2d_6">
      <g>
       <use xlink:href="#m45b42cd6ee" x="362.332587" y="279.904838" style="fill: #536475; stroke: #536475; stroke-width: 0.8"/>
      </g>
     </g>
     <g id="text_6">
      <text style="font-size: 15px; font-family: 'DejaVu Sans', 'Arial', 'Bitstream Vera Sans', 'Computer Modern Sans Serif', 'Lucida Grande', 'Verdana', 'Geneva', 'Lucid', 'Helvetica', 'Avant Garde', sans-serif; text-anchor: middle; fill: #536475" x="362.332587" y="298.301323" transform="rotate(-0 362.332587 298.301323)">4</text>
     </g>
    </g>
    <g id="xtick_7">
     <g id="line2d_7">
      <g>
       <use xlink:href="#m45b42cd6ee" x="424.227885" y="279.904838" style="fill: #536475; stroke: #536475; stroke-width: 0.8"/>
      </g>
     </g>
     <g id="text_7">
      <text style="font-size: 15px; font-family: 'DejaVu Sans', 'Arial', 'Bitstream Vera Sans', 'Computer Modern Sans Serif', 'Lucida Grande', 'Verdana', 'Geneva', 'Lucid', 'Helvetica', 'Avant Garde', sans-serif; text-anchor: middle; fill: #536475" x="424.227885" y="298.301323" transform="rotate(-0 424.227885 298.301323)">6</text>
     </g>
    </g>
    <g id="text_8">
     <text style="font-size: 15px; font-family: 'DejaVu Sans', 'Arial', 'Bitstream Vera Sans', 'Computer Modern Sans Serif', 'Lucida Grande', 'Verdana', 'Geneva', 'Lucid', 'Helvetica', 'Avant Garde', sans-serif; text-anchor: middle; fill: #182536" x="238.541992" y="317.396244" transform="rotate(-0 238.541992 317.396244)">Shared offset β (mm)</text>
    </g>
   </g>
   <g id="matplotlib.axis_2">
    <g id="ytick_1">
     <g id="line2d_8">
      <path d="M 52.856099 279.904838
L 424.227885 279.904838
" clip-path="url(#pd22c48ff54)" style="fill: none; stroke: #b0b0b0; stroke-opacity: 0.2; stroke-width: 0.8; stroke-linecap: square"/>
     </g>
     <g id="line2d_9">
      <defs>
       <path id="mf63deb1122" d="M 0 0
L -3.5 0
" style="stroke: #536475; stroke-width: 0.8"/>
      </defs>
      <g>
       <use xlink:href="#mf63deb1122" x="52.856099" y="279.904838" style="fill: #536475; stroke: #536475; stroke-width: 0.8"/>
      </g>
     </g>
     <g id="text_9">
      <text style="font-size: 15px; font-family: 'DejaVu Sans', 'Arial', 'Bitstream Vera Sans', 'Computer Modern Sans Serif', 'Lucida Grande', 'Verdana', 'Geneva', 'Lucid', 'Helvetica', 'Avant Garde', sans-serif; text-anchor: end; fill: #536475" x="45.856099" y="285.60308" transform="rotate(-0 45.856099 285.60308)">0.0</text>
     </g>
    </g>
    <g id="ytick_2">
     <g id="line2d_10">
      <path d="M 52.856099 230.589751
L 424.227885 230.589751
" clip-path="url(#pd22c48ff54)" style="fill: none; stroke: #b0b0b0; stroke-opacity: 0.2; stroke-width: 0.8; stroke-linecap: square"/>
     </g>
     <g id="line2d_11">
      <g>
       <use xlink:href="#mf63deb1122" x="52.856099" y="230.589751" style="fill: #536475; stroke: #536475; stroke-width: 0.8"/>
      </g>
     </g>
     <g id="text_10">
      <text style="font-size: 15px; font-family: 'DejaVu Sans', 'Arial', 'Bitstream Vera Sans', 'Computer Modern Sans Serif', 'Lucida Grande', 'Verdana', 'Geneva', 'Lucid', 'Helvetica', 'Avant Garde', sans-serif; text-anchor: end; fill: #536475" x="45.856099" y="236.287994" transform="rotate(-0 45.856099 236.287994)">0.1</text>
     </g>
    </g>
    <g id="ytick_3">
     <g id="line2d_12">
      <path d="M 52.856099 181.274665
L 424.227885 181.274665
" clip-path="url(#pd22c48ff54)" style="fill: none; stroke: #b0b0b0; stroke-opacity: 0.2; stroke-width: 0.8; stroke-linecap: square"/>
     </g>
     <g id="line2d_13">
      <g>
       <use xlink:href="#mf63deb1122" x="52.856099" y="181.274665" style="fill: #536475; stroke: #536475; stroke-width: 0.8"/>
      </g>
     </g>
     <g id="text_11">
      <text style="font-size: 15px; font-family: 'DejaVu Sans', 'Arial', 'Bitstream Vera Sans', 'Computer Modern Sans Serif', 'Lucida Grande', 'Verdana', 'Geneva', 'Lucid', 'Helvetica', 'Avant Garde', sans-serif; text-anchor: end; fill: #536475" x="45.856099" y="186.972907" transform="rotate(-0 45.856099 186.972907)">0.2</text>
     </g>
    </g>
    <g id="ytick_4">
     <g id="line2d_14">
      <path d="M 52.856099 131.959578
L 424.227885 131.959578
" clip-path="url(#pd22c48ff54)" style="fill: none; stroke: #b0b0b0; stroke-opacity: 0.2; stroke-width: 0.8; stroke-linecap: square"/>
     </g>
     <g id="line2d_15">
      <g>
       <use xlink:href="#mf63deb1122" x="52.856099" y="131.959578" style="fill: #536475; stroke: #536475; stroke-width: 0.8"/>
      </g>
     </g>
     <g id="text_12">
      <text style="font-size: 15px; font-family: 'DejaVu Sans', 'Arial', 'Bitstream Vera Sans', 'Computer Modern Sans Serif', 'Lucida Grande', 'Verdana', 'Geneva', 'Lucid', 'Helvetica', 'Avant Garde', sans-serif; text-anchor: end; fill: #536475" x="45.856099" y="137.65782" transform="rotate(-0 45.856099 137.65782)">0.3</text>
     </g>
    </g>
    <g id="ytick_5">
     <g id="line2d_16">
      <path d="M 52.856099 82.644492
L 424.227885 82.644492
" clip-path="url(#pd22c48ff54)" style="fill: none; stroke: #b0b0b0; stroke-opacity: 0.2; stroke-width: 0.8; stroke-linecap: square"/>
     </g>
     <g id="line2d_17">
      <g>
       <use xlink:href="#mf63deb1122" x="52.856099" y="82.644492" style="fill: #536475; stroke: #536475; stroke-width: 0.8"/>
      </g>
     </g>
     <g id="text_13">
      <text style="font-size: 15px; font-family: 'DejaVu Sans', 'Arial', 'Bitstream Vera Sans', 'Computer Modern Sans Serif', 'Lucida Grande', 'Verdana', 'Geneva', 'Lucid', 'Helvetica', 'Avant Garde', sans-serif; text-anchor: end; fill: #536475" x="45.856099" y="88.342734" transform="rotate(-0 45.856099 88.342734)">0.4</text>
     </g>
    </g>
    <g id="ytick_6">
     <g id="line2d_18">
      <path d="M 52.856099 33.329405
L 424.227885 33.329405
" clip-path="url(#pd22c48ff54)" style="fill: none; stroke: #b0b0b0; stroke-opacity: 0.2; stroke-width: 0.8; stroke-linecap: square"/>
     </g>
     <g id="line2d_19">
      <g>
       <use xlink:href="#mf63deb1122" x="52.856099" y="33.329405" style="fill: #536475; stroke: #536475; stroke-width: 0.8"/>
      </g>
     </g>
     <g id="text_14">
      <text style="font-size: 15px; font-family: 'DejaVu Sans', 'Arial', 'Bitstream Vera Sans', 'Computer Modern Sans Serif', 'Lucida Grande', 'Verdana', 'Geneva', 'Lucid', 'Helvetica', 'Avant Garde', sans-serif; text-anchor: end; fill: #536475" x="45.856099" y="39.027647" transform="rotate(-0 45.856099 39.027647)">0.5</text>
     </g>
    </g>
    <g id="text_15">
     <text style="font-size: 15px; font-family: 'DejaVu Sans', 'Arial', 'Bitstream Vera Sans', 'Computer Modern Sans Serif', 'Lucida Grande', 'Verdana', 'Geneva', 'Lucid', 'Helvetica', 'Avant Garde', sans-serif; text-anchor: middle; fill: #182536" x="14.397896" y="154.151367" transform="rotate(-90 14.397896 154.151367)">Density / scaled likelihood</text>
    </g>
   </g>
   <g id="line2d_20">
    <path d="M 52.856099 278.812053
L 62.346712 278.194016
L 70.186783 277.470854
L 77.201583 276.613238
L 83.803748 275.58279
L 89.993278 274.382897
L 95.770172 273.026522
L 101.134432 271.53588
L 106.086055 269.941328
L 111.037679 268.118637
L 115.989303 266.051456
L 120.940927 263.72559
L 125.479915 261.356617
L 130.018904 258.754825
L 134.970528 255.64779
L 139.922151 252.261801
L 144.873775 248.604136
L 150.238034 244.351269
L 156.014929 239.463983
L 162.204458 233.926339
L 169.631894 226.974648
L 192.739472 205.096494
L 198.103731 200.44059
L 203.055355 196.444304
L 207.181708 193.384987
L 211.308061 190.611273
L 215.021779 188.38741
L 218.322862 186.646462
L 221.623944 185.142327
L 224.925027 183.887438
L 228.226109 182.89227
L 231.114556 182.241188
L 234.003004 181.799622
L 236.891451 181.570442
L 239.779898 181.555144
L 242.668345 181.753828
L 245.556793 182.165198
L 248.44524 182.786576
L 251.333687 183.613933
L 254.63477 184.804794
L 257.935852 186.24771
L 261.236935 187.93072
L 264.950652 190.093861
L 268.66437 192.521274
L 272.790724 195.498665
L 277.329712 199.072761
L 282.281336 203.270861
L 288.05823 208.474018
L 295.898301 215.87342
L 314.879526 233.926339
L 321.481691 239.822755
L 327.258585 244.688603
L 332.622845 248.919026
L 337.574468 252.554485
L 342.526092 255.91742
L 347.477716 259.00107
L 352.42934 261.804522
L 357.380964 264.331982
L 362.332587 266.591992
L 367.284211 268.596623
L 372.235835 270.360678
L 377.187459 271.900934
L 382.551718 273.337947
L 388.328612 274.642742
L 394.518142 275.794401
L 401.120307 276.781068
L 408.135108 277.600187
L 415.975179 278.289021
L 424.227885 278.812053
L 424.227885 278.812053
" clip-path="url(#pd22c48ff54)" style="fill: none; stroke-dasharray: 9.25,4; stroke-dashoffset: 0; stroke: #536475; stroke-width: 2.5"/>
   </g>
   <g id="line2d_21">
    <path d="M 52.856099 279.904838
L 180.360412 279.798945
L 190.26366 279.556619
L 196.865825 279.17739
L 201.817449 278.677983
L 205.943802 278.045065
L 209.65752 277.241303
L 212.958603 276.283461
L 215.84705 275.210669
L 218.322862 274.082
L 220.798674 272.728032
L 223.274485 271.115661
L 225.750297 269.209716
L 228.226109 266.973491
L 230.289286 264.830592
L 232.352462 262.410512
L 234.415639 259.691937
L 236.478816 256.654468
L 238.541992 253.279146
L 241.017804 248.759125
L 243.493616 243.704205
L 245.969428 238.097302
L 248.44524 231.930003
L 250.921052 225.204132
L 253.809499 216.670063
L 256.697946 207.438579
L 259.999029 196.125391
L 263.712747 182.605934
L 269.489641 160.576766
L 276.091806 135.524019
L 279.392889 123.776771
L 282.281336 114.269648
L 284.757148 106.865137
L 286.820324 101.317707
L 288.883501 96.409783
L 290.534042 92.985606
L 292.184583 90.038364
L 293.835125 87.592453
L 295.073031 86.099472
L 296.310937 84.907146
L 297.548843 84.02115
L 298.786749 83.445714
L 300.024654 83.183594
L 301.26256 83.236046
L 302.500466 83.602819
L 303.738372 84.282154
L 304.976278 85.270802
L 306.214184 86.564047
L 307.45209 88.155743
L 309.102631 90.729063
L 310.753173 93.797972
L 312.403714 97.33714
L 314.466891 102.378132
L 316.530067 108.045454
L 319.005879 115.574836
L 321.894326 125.199687
L 325.195409 137.043198
L 330.147033 155.806213
L 338.399739 187.190693
L 342.113457 200.455381
L 345.414539 211.476453
L 348.302987 220.416058
L 351.191434 228.636334
L 353.667246 235.083846
L 356.143058 240.970499
L 358.61887 246.299779
L 361.094681 251.084636
L 363.570493 255.345882
L 366.046305 259.110586
L 368.522117 262.410512
L 370.997929 265.280654
L 373.473741 267.757906
L 375.949553 269.879892
L 378.425365 271.683963
L 380.901177 273.206385
L 383.376989 274.481689
L 386.265436 275.700202
L 389.153883 276.673205
L 392.454966 277.53808
L 396.168683 278.260199
L 400.295037 278.825673
L 405.24666 279.269043
L 411.43619 279.588269
L 420.101532 279.793332
L 424.227885 279.83884
L 424.227885 279.83884
" clip-path="url(#pd22c48ff54)" style="fill: none; stroke-dasharray: 3,4.95; stroke-dashoffset: 0; stroke: #b44a24; stroke-width: 3"/>
   </g>
   <g id="line2d_22">
    <path d="M 52.856099 279.904838
L 179.947777 279.797703
L 188.613119 279.558381
L 194.390013 279.187348
L 198.929002 278.67184
L 202.64272 278.022625
L 205.943802 277.204607
L 208.832249 276.244892
L 211.308061 275.195966
L 213.783873 273.894696
L 215.84705 272.584397
L 217.910226 271.037831
L 219.973403 269.224031
L 222.036579 267.110485
L 224.099756 264.663613
L 226.162933 261.849374
L 228.226109 258.633995
L 230.289286 254.98484
L 232.352462 250.871395
L 234.415639 246.266359
L 236.478816 241.146835
L 238.541992 235.495561
L 241.017804 227.998112
L 243.493616 219.718319
L 245.969428 210.673863
L 248.857875 199.210323
L 252.158958 185.040449
L 255.872676 168.022431
L 262.474841 136.404517
L 267.013829 115.151673
L 269.902276 102.517219
L 272.378088 92.550076
L 274.441265 85.012287
L 276.504441 78.294407
L 278.154983 73.580706
L 279.805524 69.506214
L 281.456065 66.112761
L 282.693971 64.036083
L 283.931877 62.374729
L 285.169783 61.138559
L 285.995054 60.554404
L 286.820324 60.1641
L 287.645595 59.968688
L 288.470866 59.968688
L 289.296136 60.1641
L 290.121407 60.554404
L 290.946677 61.138559
L 292.184583 62.374729
L 293.422489 64.036083
L 294.660395 66.112761
L 295.898301 68.592508
L 297.548843 72.500418
L 299.199384 77.058571
L 300.849925 82.220677
L 302.913102 89.44366
L 305.388914 99.094543
L 308.277361 111.449508
L 311.991079 128.5434
L 324.782774 188.679082
L 328.083856 202.580872
L 330.972303 213.771657
L 333.448115 222.564524
L 335.923927 230.584463
L 338.399739 237.820712
L 340.875551 244.281395
L 342.938727 249.089765
L 345.001904 253.39679
L 347.065081 257.228154
L 349.128257 260.613222
L 351.191434 263.583907
L 353.25461 266.173638
L 355.317787 268.416445
L 357.380964 270.34617
L 359.44414 271.995818
L 361.507317 273.397022
L 363.983129 274.79243
L 366.458941 275.920635
L 368.934752 276.824609
L 371.8232 277.646406
L 375.124282 278.341739
L 378.838 278.889044
L 383.376989 279.319492
L 389.153883 279.625685
L 397.406589 279.814963
L 412.674096 279.896102
L 424.227885 279.903615
L 424.227885 279.903615
" clip-path="url(#pd22c48ff54)" style="fill: none; stroke: #176b93; stroke-width: 3; stroke-linecap: square"/>
   </g>
   <g id="patch_3">
    <path d="M 52.856099 279.904838
L 52.856099 28.397896
" style="fill: none; stroke: #b7c3cd; stroke-width: 0.8; stroke-linejoin: miter; stroke-linecap: square"/>
   </g>
   <g id="patch_4">
    <path d="M 52.856099 279.904838
L 424.227885 279.904838
" style="fill: none; stroke: #b7c3cd; stroke-width: 0.8; stroke-linejoin: miter; stroke-linecap: square"/>
   </g>
   <g id="text_16">
    <text style="font-weight: 700; font-size: 15px; font-family: 'DejaVu Sans', 'Arial', 'Bitstream Vera Sans', 'Computer Modern Sans Serif', 'Lucida Grande', 'Verdana', 'Geneva', 'Lucid', 'Helvetica', 'Avant Garde', sans-serif; text-anchor: start; fill: #182536" x="52.856099" y="14.397896" transform="rotate(-0 52.856099 14.397896)">Prior × likelihood → posterior</text>
   </g>
   <g id="legend_1">
    <g id="line2d_23">
     <path d="M 64.556099 45.425865
L 77.556099 45.425865
L 90.556099 45.425865
" style="fill: none; stroke-dasharray: 9.25,4; stroke-dashoffset: 0; stroke: #536475; stroke-width: 2.5"/>
    </g>
    <g id="text_17">
     <text style="font-size: 13px; font-family: 'DejaVu Sans', 'Arial', 'Bitstream Vera Sans', 'Computer Modern Sans Serif', 'Lucida Grande', 'Verdana', 'Geneva', 'Lucid', 'Helvetica', 'Avant Garde', sans-serif; text-anchor: start; fill: #182536" x="100.956099" y="49.975865" transform="rotate(-0 100.956099 49.975865)">Prior</text>
    </g>
    <g id="line2d_24">
     <path d="M 64.556099 64.926881
L 77.556099 64.926881
L 90.556099 64.926881
" style="fill: none; stroke-dasharray: 3,4.95; stroke-dashoffset: 0; stroke: #b44a24; stroke-width: 3"/>
    </g>
    <g id="text_18">
     <text style="font-size: 13px; font-family: 'DejaVu Sans', 'Arial', 'Bitstream Vera Sans', 'Computer Modern Sans Serif', 'Lucida Grande', 'Verdana', 'Geneva', 'Lucid', 'Helvetica', 'Avant Garde', sans-serif; text-anchor: start; fill: #182536" x="100.956099" y="69.476881" transform="rotate(-0 100.956099 69.476881)">Likelihood (scaled)</text>
    </g>
    <g id="line2d_25">
     <path d="M 64.556099 84.427896
L 77.556099 84.427896
L 90.556099 84.427896
" style="fill: none; stroke: #176b93; stroke-width: 3; stroke-linecap: square"/>
    </g>
    <g id="text_19">
     <text style="font-size: 13px; font-family: 'DejaVu Sans', 'Arial', 'Bitstream Vera Sans', 'Computer Modern Sans Serif', 'Lucida Grande', 'Verdana', 'Geneva', 'Lucid', 'Helvetica', 'Avant Garde', sans-serif; text-anchor: start; fill: #182536" x="100.956099" y="88.977896" transform="rotate(-0 100.956099 88.977896)">Posterior</text>
    </g>
   </g>
  </g>
 </g>
 <defs>
  <clipPath id="pd22c48ff54">
   <rect x="52.856099" y="28.397896" width="371.371786" height="251.506942"/>
  </clipPath>
 </defs>
</svg>
