<?xml version="1.0" encoding="utf-8" standalone="no"?>
<!DOCTYPE svg PUBLIC "-//W3C//DTD SVG 1.1//EN"
  "http://www.w3.org/Graphics/SVG/1.1/DTD/svg11.dtd">
<svg role="img" xmlns:xlink="http://www.w3.org/1999/xlink" width="720pt" height="518.4pt" viewBox="0 0 720 518.4" xmlns="http://www.w3.org/2000/svg" version="1.1">
 <title>Change harmonic spacing while holding the envelope fixed</title>
 <metadata>
  <rdf:RDF xmlns:dc="http://purl.org/dc/elements/1.1/" xmlns:cc="http://creativecommons.org/ns#" xmlns:rdf="http://www.w3.org/1999/02/22-rdf-syntax-ns#">
   <cc:Work>
    <dc:type rdf:resource="http://purl.org/dc/dcmitype/StillImage"/>
    <dc:title>Change harmonic spacing while holding the envelope fixed</dc:title>
    <dc:description>Two invented spectra have fundamental frequencies 125 and 200 Hz. Both use the same smooth envelope with peaks at 650 and 1800 Hz; the harmonic spacings differ.</dc:description>
    <dc:format>image/svg+xml</dc:format>
    <dc:creator>
     <cc:Agent>
      <dc:title>Matplotlib v3.11.2, https://matplotlib.org/</dc:title>
     </cc:Agent>
    </dc:creator>
   </cc:Work>
  </rdf:RDF>
 </metadata>
 <defs>
  <style type="text/css">*{stroke-linejoin: round; stroke-linecap: butt}</style>
 </defs>
 <g id="figure_1">
  <g id="patch_1">
   <path d="M 0 518.4
L 720 518.4
L 720 0
L 0 0
z
" style="fill: #fffdf9"/>
  </g>
  <g id="axes_1">
   <g id="patch_2">
    <path d="M 79.2 249.093378
L 691.2 249.093378
L 691.2 114.048
L 79.2 114.048
z
" style="fill: #fffdf9"/>
   </g>
   <g id="matplotlib.axis_1">
    <g id="xtick_1">
     <g id="line2d_1">
      <defs>
       <path id="mf2b1c7f9f8" d="M 0 0
L 0 3.5
" style="stroke: #4a5a53; stroke-width: 0.8"/>
      </defs>
      <g>
       <use xlink:href="#mf2b1c7f9f8" x="79.2" y="249.093378" style="fill: #4a5a53; stroke: #4a5a53; stroke-width: 0.8"/>
      </g>
     </g>
    </g>
    <g id="xtick_2">
     <g id="line2d_2">
      <g>
       <use xlink:href="#mf2b1c7f9f8" x="181.2" y="249.093378" style="fill: #4a5a53; stroke: #4a5a53; stroke-width: 0.8"/>
      </g>
     </g>
    </g>
    <g id="xtick_3">
     <g id="line2d_3">
      <g>
       <use xlink:href="#mf2b1c7f9f8" x="283.2" y="249.093378" style="fill: #4a5a53; stroke: #4a5a53; stroke-width: 0.8"/>
      </g>
     </g>
    </g>
    <g id="xtick_4">
     <g id="line2d_4">
      <g>
       <use xlink:href="#mf2b1c7f9f8" x="385.2" y="249.093378" style="fill: #4a5a53; stroke: #4a5a53; stroke-width: 0.8"/>
      </g>
     </g>
    </g>
    <g id="xtick_5">
     <g id="line2d_5">
      <g>
       <use xlink:href="#mf2b1c7f9f8" x="487.2" y="249.093378" style="fill: #4a5a53; stroke: #4a5a53; stroke-width: 0.8"/>
      </g>
     </g>
    </g>
    <g id="xtick_6">
     <g id="line2d_6">
      <g>
       <use xlink:href="#mf2b1c7f9f8" x="589.2" y="249.093378" style="fill: #4a5a53; stroke: #4a5a53; stroke-width: 0.8"/>
      </g>
     </g>
    </g>
    <g id="xtick_7">
     <g id="line2d_7">
      <g>
       <use xlink:href="#mf2b1c7f9f8" x="691.2" y="249.093378" style="fill: #4a5a53; stroke: #4a5a53; stroke-width: 0.8"/>
      </g>
     </g>
    </g>
   </g>
   <g id="matplotlib.axis_2">
    <g id="ytick_1">
     <g id="line2d_8">
      <path d="M 79.2 249.093378
L 691.2 249.093378
" clip-path="url(#p05cdd68beb)" style="fill: none; stroke: #b0b0b0; stroke-opacity: 0.18; stroke-width: 0.8; stroke-linecap: square"/>
     </g>
     <g id="line2d_9">
      <defs>
       <path id="m8742e99620" d="M 0 0
L -3.5 0
" style="stroke: #4a5a53; stroke-width: 0.8"/>
      </defs>
      <g>
       <use xlink:href="#m8742e99620" x="79.2" y="249.093378" style="fill: #4a5a53; stroke: #4a5a53; stroke-width: 0.8"/>
      </g>
     </g>
     <g id="text_1">
      <text style="font-size: 12px; font-family: 'Arial'; text-anchor: end; fill: #4a5a53" x="72.2" y="253.461542" transform="rotate(-0 72.2 253.461542)">0.00</text>
     </g>
    </g>
    <g id="ytick_2">
     <g id="line2d_10">
      <path d="M 79.2 216.939717
L 691.2 216.939717
" clip-path="url(#p05cdd68beb)" style="fill: none; stroke: #b0b0b0; stroke-opacity: 0.18; stroke-width: 0.8; stroke-linecap: square"/>
     </g>
     <g id="line2d_11">
      <g>
       <use xlink:href="#m8742e99620" x="79.2" y="216.939717" style="fill: #4a5a53; stroke: #4a5a53; stroke-width: 0.8"/>
      </g>
     </g>
     <g id="text_2">
      <text style="font-size: 12px; font-family: 'Arial'; text-anchor: end; fill: #4a5a53" x="72.2" y="221.307881" transform="rotate(-0 72.2 221.307881)">0.25</text>
     </g>
    </g>
    <g id="ytick_3">
     <g id="line2d_12">
      <path d="M 79.2 184.786055
L 691.2 184.786055
" clip-path="url(#p05cdd68beb)" style="fill: none; stroke: #b0b0b0; stroke-opacity: 0.18; stroke-width: 0.8; stroke-linecap: square"/>
     </g>
     <g id="line2d_13">
      <g>
       <use xlink:href="#m8742e99620" x="79.2" y="184.786055" style="fill: #4a5a53; stroke: #4a5a53; stroke-width: 0.8"/>
      </g>
     </g>
     <g id="text_3">
      <text style="font-size: 12px; font-family: 'Arial'; text-anchor: end; fill: #4a5a53" x="72.2" y="189.154219" transform="rotate(-0 72.2 189.154219)">0.50</text>
     </g>
    </g>
    <g id="ytick_4">
     <g id="line2d_14">
      <path d="M 79.2 152.632394
L 691.2 152.632394
" clip-path="url(#p05cdd68beb)" style="fill: none; stroke: #b0b0b0; stroke-opacity: 0.18; stroke-width: 0.8; stroke-linecap: square"/>
     </g>
     <g id="line2d_15">
      <g>
       <use xlink:href="#m8742e99620" x="79.2" y="152.632394" style="fill: #4a5a53; stroke: #4a5a53; stroke-width: 0.8"/>
      </g>
     </g>
     <g id="text_4">
      <text style="font-size: 12px; font-family: 'Arial'; text-anchor: end; fill: #4a5a53" x="72.2" y="157.000558" transform="rotate(-0 72.2 157.000558)">0.75</text>
     </g>
    </g>
    <g id="ytick_5">
     <g id="line2d_16">
      <path d="M 79.2 120.478732
L 691.2 120.478732
" clip-path="url(#p05cdd68beb)" style="fill: none; stroke: #b0b0b0; stroke-opacity: 0.18; stroke-width: 0.8; stroke-linecap: square"/>
     </g>
     <g id="line2d_17">
      <g>
       <use xlink:href="#m8742e99620" x="79.2" y="120.478732" style="fill: #4a5a53; stroke: #4a5a53; stroke-width: 0.8"/>
      </g>
     </g>
     <g id="text_5">
      <text style="font-size: 12px; font-family: 'Arial'; text-anchor: end; fill: #4a5a53" x="72.2" y="124.846896" transform="rotate(-0 72.2 124.846896)">1.00</text>
     </g>
    </g>
    <g id="text_6">
     <text style="font-size: 12px; font-family: 'Arial'; text-anchor: middle; fill: #13201a" x="42.321484" y="181.570689" transform="rotate(-90 42.321484 181.570689)">Relative amplitude</text>
    </g>
   </g>
   <g id="line2d_18">
    <path d="M 79.2 242.019524
L 120.51 241.912578
L 128.67 241.670191
L 134.28 241.280411
L 138.36 240.786052
L 141.93 240.132056
L 144.99 239.347077
L 147.54 238.490939
L 150.09 237.410644
L 152.64 236.064358
L 154.68 234.765965
L 156.72 233.245418
L 158.76 231.479321
L 160.8 229.445059
L 162.84 227.121644
L 164.88 224.490655
L 166.92 221.537269
L 168.96 218.251333
L 171.51 213.67021
L 174.06 208.569776
L 176.61 202.976177
L 179.67 195.681959
L 183.24 186.535219
L 195.48 154.413661
L 198.03 148.64248
L 200.07 144.515061
L 202.11 140.907369
L 203.64 138.585085
L 205.17 136.620555
L 206.7 135.035982
L 208.23 133.849485
L 209.25 133.286589
L 210.27 132.909698
L 211.29 132.720763
L 212.31 132.720763
L 213.33 132.909698
L 214.35 133.286589
L 215.37 133.849485
L 216.39 134.595482
L 217.92 136.049164
L 219.45 137.889315
L 220.98 140.095051
L 222.51 142.641669
L 224.55 146.518507
L 226.59 150.877037
L 229.14 156.879164
L 232.2 164.67418
L 238.32 181.101694
L 242.91 193.128868
L 245.97 200.610609
L 249.03 207.489294
L 251.58 212.691117
L 254.13 217.377214
L 256.68 221.537242
L 258.72 224.490618
L 260.76 227.121593
L 262.8 229.444989
L 264.84 231.479225
L 266.88 233.245288
L 268.92 234.765788
L 271.47 236.356745
L 274.02 237.646225
L 276.57 238.678284
L 279.12 239.494072
L 282.18 240.239868
L 285.75 240.858888
L 289.83 241.324334
L 294.93 241.663915
L 301.56 241.870625
L 311.76 241.945842
L 325.02 241.824207
L 334.71 241.524564
L 341.34 241.118662
L 346.95 240.565762
L 351.54 239.910509
L 355.62 239.126807
L 359.7 238.106608
L 363.27 236.980486
L 366.84 235.598913
L 369.9 234.183486
L 372.96 232.530454
L 376.02 230.618134
L 379.08 228.427038
L 382.14 225.940968
L 385.2 223.148207
L 388.26 220.042725
L 391.32 216.625374
L 394.38 212.90498
L 397.95 208.205719
L 402.03 202.418481
L 406.62 195.494587
L 422.43 171.177441
L 426 166.338005
L 429.06 162.602631
L 431.61 159.841262
L 434.16 157.443978
L 436.2 155.813298
L 438.24 154.455746
L 440.28 153.38511
L 442.32 152.612365
L 443.85 152.233212
L 445.38 152.028388
L 446.91 151.999089
L 448.44 152.145487
L 449.97 152.466727
L 452.01 153.163633
L 454.05 154.160711
L 456.09 155.447719
L 458.13 157.011555
L 460.17 158.836474
L 462.72 161.456963
L 465.27 164.417065
L 468.33 168.355411
L 471.9 173.379371
L 475.98 179.521958
L 492.81 205.362744
L 496.89 210.93632
L 500.46 215.418229
L 503.52 218.937999
L 506.58 222.147904
L 509.64 225.044551
L 512.7 227.631805
L 515.76 229.919623
L 518.82 231.922842
L 521.88 233.659981
L 524.94 235.152108
L 528 236.421804
L 531.57 237.652925
L 535.14 238.649314
L 539.22 239.545262
L 543.81 240.300639
L 548.91 240.896176
L 555.03 241.364301
L 562.68 241.699907
L 572.88 241.90579
L 590.73 242.004427
L 661.62 242.019572
L 691.2 242.019573
L 691.2 242.019573
" clip-path="url(#p05cdd68beb)" style="fill: none; stroke-dasharray: 5.55,2.4; stroke-dashoffset: 0; stroke: #88938b; stroke-width: 1.5"/>
   </g>
   <g id="LineCollection_1">
    <path d="M 104.7 249.093378
L 104.7 242.011688
" clip-path="url(#p05cdd68beb)" style="fill: none; stroke: #087354; stroke-width: 2"/>
    <path d="M 130.2 249.093378
L 130.2 241.588738
" clip-path="url(#p05cdd68beb)" style="fill: none; stroke: #087354; stroke-width: 2"/>
    <path d="M 155.7 249.093378
L 155.7 234.034932
" clip-path="url(#p05cdd68beb)" style="fill: none; stroke: #087354; stroke-width: 2"/>
    <path d="M 181.2 249.093378
L 181.2 191.832622
" clip-path="url(#p05cdd68beb)" style="fill: none; stroke: #087354; stroke-width: 2"/>
    <path d="M 206.7 249.093378
L 206.7 135.035982
" clip-path="url(#p05cdd68beb)" style="fill: none; stroke: #087354; stroke-width: 2"/>
    <path d="M 232.2 249.093378
L 232.2 164.67418
" clip-path="url(#p05cdd68beb)" style="fill: none; stroke: #087354; stroke-width: 2"/>
    <path d="M 257.7 249.093378
L 257.7 223.054987
" clip-path="url(#p05cdd68beb)" style="fill: none; stroke: #087354; stroke-width: 2"/>
    <path d="M 283.2 249.093378
L 283.2 240.441191
" clip-path="url(#p05cdd68beb)" style="fill: none; stroke: #087354; stroke-width: 2"/>
    <path d="M 308.7 249.093378
L 308.7 241.942055
" clip-path="url(#p05cdd68beb)" style="fill: none; stroke: #087354; stroke-width: 2"/>
    <path d="M 334.2 249.093378
L 334.2 241.547531
" clip-path="url(#p05cdd68beb)" style="fill: none; stroke: #087354; stroke-width: 2"/>
    <path d="M 359.7 249.093378
L 359.7 238.106608
" clip-path="url(#p05cdd68beb)" style="fill: none; stroke: #087354; stroke-width: 2"/>
    <path d="M 385.2 249.093378
L 385.2 223.148207
" clip-path="url(#p05cdd68beb)" style="fill: none; stroke: #087354; stroke-width: 2"/>
    <path d="M 410.7 249.093378
L 410.7 189.116484
" clip-path="url(#p05cdd68beb)" style="fill: none; stroke: #087354; stroke-width: 2"/>
    <path d="M 436.2 249.093378
L 436.2 155.813298
" clip-path="url(#p05cdd68beb)" style="fill: none; stroke: #087354; stroke-width: 2"/>
    <path d="M 461.7 249.093378
L 461.7 160.36568
" clip-path="url(#p05cdd68beb)" style="fill: none; stroke: #087354; stroke-width: 2"/>
    <path d="M 487.2 249.093378
L 487.2 197.062805
" clip-path="url(#p05cdd68beb)" style="fill: none; stroke: #087354; stroke-width: 2"/>
    <path d="M 512.7 249.093378
L 512.7 227.631805
" clip-path="url(#p05cdd68beb)" style="fill: none; stroke: #087354; stroke-width: 2"/>
    <path d="M 538.2 249.093378
L 538.2 239.343044
" clip-path="url(#p05cdd68beb)" style="fill: none; stroke: #087354; stroke-width: 2"/>
    <path d="M 563.7 249.093378
L 563.7 241.730151
" clip-path="url(#p05cdd68beb)" style="fill: none; stroke: #087354; stroke-width: 2"/>
    <path d="M 589.2 249.093378
L 589.2 242.001381
" clip-path="url(#p05cdd68beb)" style="fill: none; stroke: #087354; stroke-width: 2"/>
    <path d="M 614.7 249.093378
L 614.7 242.018908
" clip-path="url(#p05cdd68beb)" style="fill: none; stroke: #087354; stroke-width: 2"/>
    <path d="M 640.2 249.093378
L 640.2 242.019559
" clip-path="url(#p05cdd68beb)" style="fill: none; stroke: #087354; stroke-width: 2"/>
    <path d="M 665.7 249.093378
L 665.7 242.019572
" clip-path="url(#p05cdd68beb)" style="fill: none; stroke: #087354; stroke-width: 2"/>
    <path d="M 691.2 249.093378
L 691.2 242.019573
" clip-path="url(#p05cdd68beb)" style="fill: none; stroke: #087354; stroke-width: 2"/>
   </g>
   <g id="patch_3">
    <path d="M 79.2 249.093378
L 79.2 114.048
" style="fill: none; stroke: #000000; stroke-width: 0.8; stroke-linejoin: miter; stroke-linecap: square"/>
   </g>
   <g id="patch_4">
    <path d="M 79.2 249.093378
L 691.2 249.093378
" style="fill: none; stroke: #000000; stroke-width: 0.8; stroke-linejoin: miter; stroke-linecap: square"/>
   </g>
   <g id="text_7">
    <text style="font-weight: 700; font-size: 13px; font-family: 'Arial'; text-anchor: start; fill: #13201a" x="79.2" y="108.048" transform="rotate(-0 79.2 108.048)">F0 = 125 Hz  ·  harmonics every 125 Hz</text>
   </g>
   <g id="legend_1">
    <g id="line2d_19">
     <path d="M 537.478125 126.828273
L 547.478125 126.828273
L 557.478125 126.828273
" style="fill: none; stroke-dasharray: 5.55,2.4; stroke-dashoffset: 0; stroke: #88938b; stroke-width: 1.5"/>
    </g>
    <g id="text_8">
     <text style="font-size: 10px; font-family: 'Arial'; text-anchor: start; fill: #13201a" x="565.478125" y="130.328273" transform="rotate(-0 565.478125 130.328273)">Same illustrative envelope</text>
    </g>
   </g>
  </g>
  <g id="axes_2">
   <g id="patch_5">
    <path d="M 79.2 435.456
L 691.2 435.456
L 691.2 300.410622
L 79.2 300.410622
z
" style="fill: #fffdf9"/>
   </g>
   <g id="matplotlib.axis_3">
    <g id="xtick_8">
     <g id="line2d_20">
      <g>
       <use xlink:href="#mf2b1c7f9f8" x="79.2" y="435.456" style="fill: #4a5a53; stroke: #4a5a53; stroke-width: 0.8"/>
      </g>
     </g>
     <g id="text_9">
      <text style="font-size: 12px; font-family: 'Arial'; text-anchor: middle; fill: #4a5a53" x="79.2" y="451.192328" transform="rotate(-0 79.2 451.192328)">0</text>
     </g>
    </g>
    <g id="xtick_9">
     <g id="line2d_21">
      <g>
       <use xlink:href="#mf2b1c7f9f8" x="181.2" y="435.456" style="fill: #4a5a53; stroke: #4a5a53; stroke-width: 0.8"/>
      </g>
     </g>
     <g id="text_10">
      <text style="font-size: 12px; font-family: 'Arial'; text-anchor: middle; fill: #4a5a53" x="181.2" y="451.192328" transform="rotate(-0 181.2 451.192328)">500</text>
     </g>
    </g>
    <g id="xtick_10">
     <g id="line2d_22">
      <g>
       <use xlink:href="#mf2b1c7f9f8" x="283.2" y="435.456" style="fill: #4a5a53; stroke: #4a5a53; stroke-width: 0.8"/>
      </g>
     </g>
     <g id="text_11">
      <text style="font-size: 12px; font-family: 'Arial'; text-anchor: middle; fill: #4a5a53" x="283.2" y="451.192328" transform="rotate(-0 283.2 451.192328)">1000</text>
     </g>
    </g>
    <g id="xtick_11">
     <g id="line2d_23">
      <g>
       <use xlink:href="#mf2b1c7f9f8" x="385.2" y="435.456" style="fill: #4a5a53; stroke: #4a5a53; stroke-width: 0.8"/>
      </g>
     </g>
     <g id="text_12">
      <text style="font-size: 12px; font-family: 'Arial'; text-anchor: middle; fill: #4a5a53" x="385.2" y="451.192328" transform="rotate(-0 385.2 451.192328)">1500</text>
     </g>
    </g>
    <g id="xtick_12">
     <g id="line2d_24">
      <g>
       <use xlink:href="#mf2b1c7f9f8" x="487.2" y="435.456" style="fill: #4a5a53; stroke: #4a5a53; stroke-width: 0.8"/>
      </g>
     </g>
     <g id="text_13">
      <text style="font-size: 12px; font-family: 'Arial'; text-anchor: middle; fill: #4a5a53" x="487.2" y="451.192328" transform="rotate(-0 487.2 451.192328)">2000</text>
     </g>
    </g>
    <g id="xtick_13">
     <g id="line2d_25">
      <g>
       <use xlink:href="#mf2b1c7f9f8" x="589.2" y="435.456" style="fill: #4a5a53; stroke: #4a5a53; stroke-width: 0.8"/>
      </g>
     </g>
     <g id="text_14">
      <text style="font-size: 12px; font-family: 'Arial'; text-anchor: middle; fill: #4a5a53" x="589.2" y="451.192328" transform="rotate(-0 589.2 451.192328)">2500</text>
     </g>
    </g>
    <g id="xtick_14">
     <g id="line2d_26">
      <g>
       <use xlink:href="#mf2b1c7f9f8" x="691.2" y="435.456" style="fill: #4a5a53; stroke: #4a5a53; stroke-width: 0.8"/>
      </g>
     </g>
     <g id="text_15">
      <text style="font-size: 12px; font-family: 'Arial'; text-anchor: middle; fill: #4a5a53" x="691.2" y="451.192328" transform="rotate(-0 691.2 451.192328)">3000</text>
     </g>
    </g>
    <g id="text_16">
     <text style="font-size: 12px; font-family: 'Arial'; text-anchor: middle; fill: #13201a" x="385.2" y="466.454047" transform="rotate(-0 385.2 466.454047)">Frequency (Hz)</text>
    </g>
   </g>
   <g id="matplotlib.axis_4">
    <g id="ytick_6">
     <g id="line2d_27">
      <path d="M 79.2 435.456
L 691.2 435.456
" clip-path="url(#p141e50abea)" style="fill: none; stroke: #b0b0b0; stroke-opacity: 0.18; stroke-width: 0.8; stroke-linecap: square"/>
     </g>
     <g id="line2d_28">
      <g>
       <use xlink:href="#m8742e99620" x="79.2" y="435.456" style="fill: #4a5a53; stroke: #4a5a53; stroke-width: 0.8"/>
      </g>
     </g>
     <g id="text_17">
      <text style="font-size: 12px; font-family: 'Arial'; text-anchor: end; fill: #4a5a53" x="72.2" y="439.824164" transform="rotate(-0 72.2 439.824164)">0.00</text>
     </g>
    </g>
    <g id="ytick_7">
     <g id="line2d_29">
      <path d="M 79.2 403.302339
L 691.2 403.302339
" clip-path="url(#p141e50abea)" style="fill: none; stroke: #b0b0b0; stroke-opacity: 0.18; stroke-width: 0.8; stroke-linecap: square"/>
     </g>
     <g id="line2d_30">
      <g>
       <use xlink:href="#m8742e99620" x="79.2" y="403.302339" style="fill: #4a5a53; stroke: #4a5a53; stroke-width: 0.8"/>
      </g>
     </g>
     <g id="text_18">
      <text style="font-size: 12px; font-family: 'Arial'; text-anchor: end; fill: #4a5a53" x="72.2" y="407.670503" transform="rotate(-0 72.2 407.670503)">0.25</text>
     </g>
    </g>
    <g id="ytick_8">
     <g id="line2d_31">
      <path d="M 79.2 371.148677
L 691.2 371.148677
" clip-path="url(#p141e50abea)" style="fill: none; stroke: #b0b0b0; stroke-opacity: 0.18; stroke-width: 0.8; stroke-linecap: square"/>
     </g>
     <g id="line2d_32">
      <g>
       <use xlink:href="#m8742e99620" x="79.2" y="371.148677" style="fill: #4a5a53; stroke: #4a5a53; stroke-width: 0.8"/>
      </g>
     </g>
     <g id="text_19">
      <text style="font-size: 12px; font-family: 'Arial'; text-anchor: end; fill: #4a5a53" x="72.2" y="375.516841" transform="rotate(-0 72.2 375.516841)">0.50</text>
     </g>
    </g>
    <g id="ytick_9">
     <g id="line2d_33">
      <path d="M 79.2 338.995016
L 691.2 338.995016
" clip-path="url(#p141e50abea)" style="fill: none; stroke: #b0b0b0; stroke-opacity: 0.18; stroke-width: 0.8; stroke-linecap: square"/>
     </g>
     <g id="line2d_34">
      <g>
       <use xlink:href="#m8742e99620" x="79.2" y="338.995016" style="fill: #4a5a53; stroke: #4a5a53; stroke-width: 0.8"/>
      </g>
     </g>
     <g id="text_20">
      <text style="font-size: 12px; font-family: 'Arial'; text-anchor: end; fill: #4a5a53" x="72.2" y="343.36318" transform="rotate(-0 72.2 343.36318)">0.75</text>
     </g>
    </g>
    <g id="ytick_10">
     <g id="line2d_35">
      <path d="M 79.2 306.841354
L 691.2 306.841354
" clip-path="url(#p141e50abea)" style="fill: none; stroke: #b0b0b0; stroke-opacity: 0.18; stroke-width: 0.8; stroke-linecap: square"/>
     </g>
     <g id="line2d_36">
      <g>
       <use xlink:href="#m8742e99620" x="79.2" y="306.841354" style="fill: #4a5a53; stroke: #4a5a53; stroke-width: 0.8"/>
      </g>
     </g>
     <g id="text_21">
      <text style="font-size: 12px; font-family: 'Arial'; text-anchor: end; fill: #4a5a53" x="72.2" y="311.209518" transform="rotate(-0 72.2 311.209518)">1.00</text>
     </g>
    </g>
    <g id="text_22">
     <text style="font-size: 12px; font-family: 'Arial'; text-anchor: middle; fill: #13201a" x="42.321484" y="367.933311" transform="rotate(-90 42.321484 367.933311)">Relative amplitude</text>
    </g>
   </g>
   <g id="line2d_37">
    <path d="M 79.2 428.382146
L 120.51 428.2752
L 128.67 428.032812
L 134.28 427.643032
L 138.36 427.148673
L 141.93 426.494678
L 144.99 425.709699
L 147.54 424.853561
L 150.09 423.773265
L 152.64 422.42698
L 154.68 421.128587
L 156.72 419.60804
L 158.76 417.841943
L 160.8 415.807681
L 162.84 413.484266
L 164.88 410.853277
L 166.92 407.899891
L 168.96 404.613955
L 171.51 400.032832
L 174.06 394.932398
L 176.61 389.338799
L 179.67 382.044581
L 183.24 372.89784
L 195.48 340.776283
L 198.03 335.005102
L 200.07 330.877683
L 202.11 327.269991
L 203.64 324.947707
L 205.17 322.983176
L 206.7 321.398604
L 208.23 320.212106
L 209.25 319.649211
L 210.27 319.27232
L 211.29 319.083385
L 212.31 319.083385
L 213.33 319.27232
L 214.35 319.649211
L 215.37 320.212106
L 216.39 320.958104
L 217.92 322.411786
L 219.45 324.251937
L 220.98 326.457672
L 222.51 329.004291
L 224.55 332.881129
L 226.59 337.239659
L 229.14 343.241785
L 232.2 351.036802
L 238.32 367.464316
L 242.91 379.49149
L 245.97 386.97323
L 249.03 393.851915
L 251.58 399.053739
L 254.13 403.739836
L 256.68 407.899864
L 258.72 410.85324
L 260.76 413.484215
L 262.8 415.807611
L 264.84 417.841847
L 266.88 419.607909
L 268.92 421.12841
L 271.47 422.719367
L 274.02 424.008847
L 276.57 425.040906
L 279.12 425.856694
L 282.18 426.60249
L 285.75 427.22151
L 289.83 427.686956
L 294.93 428.026537
L 301.56 428.233247
L 311.76 428.308464
L 325.02 428.186829
L 334.71 427.887186
L 341.34 427.481284
L 346.95 426.928384
L 351.54 426.273131
L 355.62 425.489429
L 359.7 424.469229
L 363.27 423.343108
L 366.84 421.961535
L 369.9 420.546108
L 372.96 418.893076
L 376.02 416.980756
L 379.08 414.789659
L 382.14 412.30359
L 385.2 409.510828
L 388.26 406.405347
L 391.32 402.987996
L 394.38 399.267602
L 397.95 394.568341
L 402.03 388.781103
L 406.62 381.857209
L 422.43 357.540063
L 426 352.700627
L 429.06 348.965253
L 431.61 346.203884
L 434.16 343.8066
L 436.2 342.17592
L 438.24 340.818368
L 440.28 339.747732
L 442.32 338.974987
L 443.85 338.595834
L 445.38 338.39101
L 446.91 338.361711
L 448.44 338.508109
L 449.97 338.829349
L 452.01 339.526254
L 454.05 340.523332
L 456.09 341.810341
L 458.13 343.374177
L 460.17 345.199096
L 462.72 347.819585
L 465.27 350.779687
L 468.33 354.718033
L 471.9 359.741993
L 475.98 365.88458
L 492.81 391.725365
L 496.89 397.298941
L 500.46 401.780851
L 503.52 405.30062
L 506.58 408.510525
L 509.64 411.407172
L 512.7 413.994427
L 515.76 416.282245
L 518.82 418.285463
L 521.88 420.022602
L 524.94 421.514729
L 528 422.784426
L 531.57 424.015547
L 535.14 425.011936
L 539.22 425.907884
L 543.81 426.663261
L 548.91 427.258798
L 555.03 427.726923
L 562.68 428.062529
L 572.88 428.268412
L 590.73 428.367049
L 661.62 428.382194
L 691.2 428.382194
L 691.2 428.382194
" clip-path="url(#p141e50abea)" style="fill: none; stroke-dasharray: 5.55,2.4; stroke-dashoffset: 0; stroke: #88938b; stroke-width: 1.5"/>
   </g>
   <g id="LineCollection_2">
    <path d="M 120 435.456
L 120 428.283193
" clip-path="url(#p141e50abea)" style="fill: none; stroke: #496fa1; stroke-width: 2"/>
    <path d="M 160.8 435.456
L 160.8 415.807681
" clip-path="url(#p141e50abea)" style="fill: none; stroke: #496fa1; stroke-width: 2"/>
    <path d="M 201.6 435.456
L 201.6 328.119211
" clip-path="url(#p141e50abea)" style="fill: none; stroke: #496fa1; stroke-width: 2"/>
    <path d="M 242.4 435.456
L 242.4 378.195241
" clip-path="url(#p141e50abea)" style="fill: none; stroke: #496fa1; stroke-width: 2"/>
    <path d="M 283.2 435.456
L 283.2 426.803812
" clip-path="url(#p141e50abea)" style="fill: none; stroke: #496fa1; stroke-width: 2"/>
    <path d="M 324 435.456
L 324 428.205284
" clip-path="url(#p141e50abea)" style="fill: none; stroke: #496fa1; stroke-width: 2"/>
    <path d="M 364.8 435.456
L 364.8 422.784426
" clip-path="url(#p141e50abea)" style="fill: none; stroke: #496fa1; stroke-width: 2"/>
    <path d="M 405.6 435.456
L 405.6 383.425427
" clip-path="url(#p141e50abea)" style="fill: none; stroke: #496fa1; stroke-width: 2"/>
    <path d="M 446.4 435.456
L 446.4 338.351942
" clip-path="url(#p141e50abea)" style="fill: none; stroke: #496fa1; stroke-width: 2"/>
    <path d="M 487.2 435.456
L 487.2 383.425427
" clip-path="url(#p141e50abea)" style="fill: none; stroke: #496fa1; stroke-width: 2"/>
    <path d="M 528 435.456
L 528 422.784426
" clip-path="url(#p141e50abea)" style="fill: none; stroke: #496fa1; stroke-width: 2"/>
    <path d="M 568.8 435.456
L 568.8 428.208395
" clip-path="url(#p141e50abea)" style="fill: none; stroke: #496fa1; stroke-width: 2"/>
    <path d="M 609.6 435.456
L 609.6 428.380849
" clip-path="url(#p141e50abea)" style="fill: none; stroke: #496fa1; stroke-width: 2"/>
    <path d="M 650.4 435.456
L 650.4 428.382192
" clip-path="url(#p141e50abea)" style="fill: none; stroke: #496fa1; stroke-width: 2"/>
    <path d="M 691.2 435.456
L 691.2 428.382194
" clip-path="url(#p141e50abea)" style="fill: none; stroke: #496fa1; stroke-width: 2"/>
   </g>
   <g id="patch_6">
    <path d="M 79.2 435.456
L 79.2 300.410622
" style="fill: none; stroke: #000000; stroke-width: 0.8; stroke-linejoin: miter; stroke-linecap: square"/>
   </g>
   <g id="patch_7">
    <path d="M 79.2 435.456
L 691.2 435.456
" style="fill: none; stroke: #000000; stroke-width: 0.8; stroke-linejoin: miter; stroke-linecap: square"/>
   </g>
   <g id="text_23">
    <text style="font-weight: 700; font-size: 13px; font-family: 'Arial'; text-anchor: start; fill: #13201a" x="79.2" y="294.410622" transform="rotate(-0 79.2 294.410622)">F0 = 200 Hz  ·  harmonics every 200 Hz</text>
   </g>
  </g>
  <g id="text_24">
   <text style="font-weight: 700; font-size: 20px; font-family: 'Arial'; text-anchor: start; fill: #13201a" x="28.8" y="31.104" transform="rotate(-0 28.8 31.104)">Harmonic spacing and formant locations are different</text>
  </g>
  <g id="text_25">
   <text style="font-size: 12px; font-family: 'Arial'; text-anchor: start; fill: #13201a" x="28.8" y="62.208" transform="rotate(-0 28.8 62.208)">A synthetic source–filter illustration; both envelopes peak at 650 and 1800 Hz.</text>
  </g>
  <g id="text_26">
   <text style="font-size: 11px; font-family: 'Arial'; fill: #13201a" transform="translate(79.2 477.915617)">Changing F0 moves the harmonic samples. The chosen filter envelope stays fixed.</text>
   <text style="font-size: 11px; font-family: 'Arial'; fill: #13201a" transform="translate(79.2 489.888)">These are constructed spectra, not recordings or measured vowel formants.</text>
  </g>
 </g>
 <defs>
  <clipPath id="p05cdd68beb">
   <rect x="79.2" y="114.048" width="612" height="135.045378"/>
  </clipPath>
  <clipPath id="p141e50abea">
   <rect x="79.2" y="300.410622" width="612" height="135.045378"/>
  </clipPath>
 </defs>
</svg>
