<?xml version="1.0" encoding="utf-8" standalone="no"?>
<!DOCTYPE svg PUBLIC "-//W3C//DTD SVG 1.1//EN"
  "http://www.w3.org/Graphics/SVG/1.1/DTD/svg11.dtd">
<svg xmlns:xlink="http://www.w3.org/1999/xlink" width="345.6pt" height="316.8pt" viewBox="0 0 345.6 316.8" xmlns="http://www.w3.org/2000/svg" version="1.1">
 <metadata>
  <rdf:RDF xmlns:dc="http://purl.org/dc/elements/1.1/" xmlns:cc="http://creativecommons.org/ns#" xmlns:rdf="http://www.w3.org/1999/02/22-rdf-syntax-ns#">
   <cc:Work>
    <dc:type rdf:resource="http://purl.org/dc/dcmitype/StillImage"/>
    <dc:format>image/svg+xml</dc:format>
    <dc:creator>
     <cc:Agent>
      <dc:title>Matplotlib v3.11.2, https://matplotlib.org/</dc:title>
     </cc:Agent>
    </dc:creator>
   </cc:Work>
  </rdf:RDF>
 </metadata>
 <defs>
  <style type="text/css">*{stroke-linejoin: round; stroke-linecap: butt}</style>
 </defs>
 <g id="figure_1">
  <g id="patch_1">
   <path d="M 0 316.8 
L 345.6 316.8 
L 345.6 0 
L 0 0 
z
" style="fill: #ffffff"/>
  </g>
  <g id="axes_1">
   <g id="patch_2">
    <path d="M 35.67151 275.583656 
L 334.536401 275.583656 
L 334.536401 19.192623 
L 35.67151 19.192623 
z
" style="fill: #ffffff"/>
   </g>
   <g id="matplotlib.axis_1">
    <g id="xtick_1">
     <g id="line2d_1">
      <path d="M 35.67151 275.583656 
L 35.67151 19.192623 
" clip-path="url(#pf3d9525f6a)" style="fill: none; stroke: #b0b0b0; stroke-opacity: 0.16; stroke-width: 0.8; stroke-linecap: square"/>
     </g>
     <g id="line2d_2">
      <defs>
       <path id="m3336aa74b9" d="M 0 0 
L 0 3.5 
" style="stroke: #000000; stroke-width: 0.8"/>
      </defs>
      <g>
       <use xlink:href="#m3336aa74b9" x="35.67151" y="275.583656" style="stroke: #000000; stroke-width: 0.8"/>
      </g>
     </g>
     <g id="text_1">
      <text style="font-size: 14.5px; font-family: 'Arial', 'DejaVu Sans', sans-serif; text-anchor: middle" x="35.67151" y="293.140053" transform="rotate(-0 35.67151 293.140053)">0</text>
     </g>
    </g>
    <g id="xtick_2">
     <g id="line2d_3">
      <path d="M 95.444488 275.583656 
L 95.444488 19.192623 
" clip-path="url(#pf3d9525f6a)" style="fill: none; stroke: #b0b0b0; stroke-opacity: 0.16; stroke-width: 0.8; stroke-linecap: square"/>
     </g>
     <g id="line2d_4">
      <g>
       <use xlink:href="#m3336aa74b9" x="95.444488" y="275.583656" style="stroke: #000000; stroke-width: 0.8"/>
      </g>
     </g>
     <g id="text_2">
      <text style="font-size: 14.5px; font-family: 'Arial', 'DejaVu Sans', sans-serif; text-anchor: middle" x="95.444488" y="293.140053" transform="rotate(-0 95.444488 293.140053)">2</text>
     </g>
    </g>
    <g id="xtick_3">
     <g id="line2d_5">
      <path d="M 155.217466 275.583656 
L 155.217466 19.192623 
" clip-path="url(#pf3d9525f6a)" style="fill: none; stroke: #b0b0b0; stroke-opacity: 0.16; stroke-width: 0.8; stroke-linecap: square"/>
     </g>
     <g id="line2d_6">
      <g>
       <use xlink:href="#m3336aa74b9" x="155.217466" y="275.583656" style="stroke: #000000; stroke-width: 0.8"/>
      </g>
     </g>
     <g id="text_3">
      <text style="font-size: 14.5px; font-family: 'Arial', 'DejaVu Sans', sans-serif; text-anchor: middle" x="155.217466" y="293.140053" transform="rotate(-0 155.217466 293.140053)">4</text>
     </g>
    </g>
    <g id="xtick_4">
     <g id="line2d_7">
      <path d="M 214.990444 275.583656 
L 214.990444 19.192623 
" clip-path="url(#pf3d9525f6a)" style="fill: none; stroke: #b0b0b0; stroke-opacity: 0.16; stroke-width: 0.8; stroke-linecap: square"/>
     </g>
     <g id="line2d_8">
      <g>
       <use xlink:href="#m3336aa74b9" x="214.990444" y="275.583656" style="stroke: #000000; stroke-width: 0.8"/>
      </g>
     </g>
     <g id="text_4">
      <text style="font-size: 14.5px; font-family: 'Arial', 'DejaVu Sans', sans-serif; text-anchor: middle" x="214.990444" y="293.140053" transform="rotate(-0 214.990444 293.140053)">6</text>
     </g>
    </g>
    <g id="xtick_5">
     <g id="line2d_9">
      <path d="M 274.763422 275.583656 
L 274.763422 19.192623 
" clip-path="url(#pf3d9525f6a)" style="fill: none; stroke: #b0b0b0; stroke-opacity: 0.16; stroke-width: 0.8; stroke-linecap: square"/>
     </g>
     <g id="line2d_10">
      <g>
       <use xlink:href="#m3336aa74b9" x="274.763422" y="275.583656" style="stroke: #000000; stroke-width: 0.8"/>
      </g>
     </g>
     <g id="text_5">
      <text style="font-size: 14.5px; font-family: 'Arial', 'DejaVu Sans', sans-serif; text-anchor: middle" x="274.763422" y="293.140053" transform="rotate(-0 274.763422 293.140053)">8</text>
     </g>
    </g>
    <g id="xtick_6">
     <g id="line2d_11">
      <path d="M 334.536401 275.583656 
L 334.536401 19.192623 
" clip-path="url(#pf3d9525f6a)" style="fill: none; stroke: #b0b0b0; stroke-opacity: 0.16; stroke-width: 0.8; stroke-linecap: square"/>
     </g>
     <g id="line2d_12">
      <g>
       <use xlink:href="#m3336aa74b9" x="334.536401" y="275.583656" style="stroke: #000000; stroke-width: 0.8"/>
      </g>
     </g>
     <g id="text_6">
      <text style="font-size: 14.5px; font-family: 'Arial', 'DejaVu Sans', sans-serif; text-anchor: middle" x="334.536401" y="293.140053" transform="rotate(-0 334.536401 293.140053)">10</text>
     </g>
    </g>
    <g id="text_7">
     <text style="font-size: 14.5px; font-family: 'Arial', 'DejaVu Sans', sans-serif; text-anchor: middle" x="185.103955" y="310.747963" transform="rotate(-0 185.103955 310.747963)">Input x (hours)</text>
    </g>
   </g>
   <g id="matplotlib.axis_2">
    <g id="ytick_1">
     <g id="line2d_13">
      <path d="M 35.67151 263.750224 
L 334.536401 263.750224 
" clip-path="url(#pf3d9525f6a)" style="fill: none; stroke: #b0b0b0; stroke-opacity: 0.16; stroke-width: 0.8; stroke-linecap: square"/>
     </g>
     <g id="line2d_14">
      <defs>
       <path id="m97dd9c3903" d="M 0 0 
L -3.5 0 
" style="stroke: #000000; stroke-width: 0.8"/>
      </defs>
      <g>
       <use xlink:href="#m97dd9c3903" x="35.67151" y="263.750224" style="stroke: #000000; stroke-width: 0.8"/>
      </g>
     </g>
     <g id="text_8">
      <text style="font-size: 14.5px; font-family: 'Arial', 'DejaVu Sans', sans-serif; text-anchor: end" x="28.67151" y="269.028422" transform="rotate(-0 28.67151 269.028422)">2</text>
     </g>
    </g>
    <g id="ytick_2">
     <g id="line2d_15">
      <path d="M 35.67151 224.30545 
L 334.536401 224.30545 
" clip-path="url(#pf3d9525f6a)" style="fill: none; stroke: #b0b0b0; stroke-opacity: 0.16; stroke-width: 0.8; stroke-linecap: square"/>
     </g>
     <g id="line2d_16">
      <g>
       <use xlink:href="#m97dd9c3903" x="35.67151" y="224.30545" style="stroke: #000000; stroke-width: 0.8"/>
      </g>
     </g>
     <g id="text_9">
      <text style="font-size: 14.5px; font-family: 'Arial', 'DejaVu Sans', sans-serif; text-anchor: end" x="28.67151" y="229.583648" transform="rotate(-0 28.67151 229.583648)">3</text>
     </g>
    </g>
    <g id="ytick_3">
     <g id="line2d_17">
      <path d="M 35.67151 184.860675 
L 334.536401 184.860675 
" clip-path="url(#pf3d9525f6a)" style="fill: none; stroke: #b0b0b0; stroke-opacity: 0.16; stroke-width: 0.8; stroke-linecap: square"/>
     </g>
     <g id="line2d_18">
      <g>
       <use xlink:href="#m97dd9c3903" x="35.67151" y="184.860675" style="stroke: #000000; stroke-width: 0.8"/>
      </g>
     </g>
     <g id="text_10">
      <text style="font-size: 14.5px; font-family: 'Arial', 'DejaVu Sans', sans-serif; text-anchor: end" x="28.67151" y="190.138874" transform="rotate(-0 28.67151 190.138874)">4</text>
     </g>
    </g>
    <g id="ytick_4">
     <g id="line2d_19">
      <path d="M 35.67151 145.415901 
L 334.536401 145.415901 
" clip-path="url(#pf3d9525f6a)" style="fill: none; stroke: #b0b0b0; stroke-opacity: 0.16; stroke-width: 0.8; stroke-linecap: square"/>
     </g>
     <g id="line2d_20">
      <g>
       <use xlink:href="#m97dd9c3903" x="35.67151" y="145.415901" style="stroke: #000000; stroke-width: 0.8"/>
      </g>
     </g>
     <g id="text_11">
      <text style="font-size: 14.5px; font-family: 'Arial', 'DejaVu Sans', sans-serif; text-anchor: end" x="28.67151" y="150.694099" transform="rotate(-0 28.67151 150.694099)">5</text>
     </g>
    </g>
    <g id="ytick_5">
     <g id="line2d_21">
      <path d="M 35.67151 105.971127 
L 334.536401 105.971127 
" clip-path="url(#pf3d9525f6a)" style="fill: none; stroke: #b0b0b0; stroke-opacity: 0.16; stroke-width: 0.8; stroke-linecap: square"/>
     </g>
     <g id="line2d_22">
      <g>
       <use xlink:href="#m97dd9c3903" x="35.67151" y="105.971127" style="stroke: #000000; stroke-width: 0.8"/>
      </g>
     </g>
     <g id="text_12">
      <text style="font-size: 14.5px; font-family: 'Arial', 'DejaVu Sans', sans-serif; text-anchor: end" x="28.67151" y="111.249325" transform="rotate(-0 28.67151 111.249325)">6</text>
     </g>
    </g>
    <g id="ytick_6">
     <g id="line2d_23">
      <path d="M 35.67151 66.526352 
L 334.536401 66.526352 
" clip-path="url(#pf3d9525f6a)" style="fill: none; stroke: #b0b0b0; stroke-opacity: 0.16; stroke-width: 0.8; stroke-linecap: square"/>
     </g>
     <g id="line2d_24">
      <g>
       <use xlink:href="#m97dd9c3903" x="35.67151" y="66.526352" style="stroke: #000000; stroke-width: 0.8"/>
      </g>
     </g>
     <g id="text_13">
      <text style="font-size: 14.5px; font-family: 'Arial', 'DejaVu Sans', sans-serif; text-anchor: end" x="28.67151" y="71.80455" transform="rotate(-0 28.67151 71.80455)">7</text>
     </g>
    </g>
    <g id="ytick_7">
     <g id="line2d_25">
      <path d="M 35.67151 27.081578 
L 334.536401 27.081578 
" clip-path="url(#pf3d9525f6a)" style="fill: none; stroke: #b0b0b0; stroke-opacity: 0.16; stroke-width: 0.8; stroke-linecap: square"/>
     </g>
     <g id="line2d_26">
      <g>
       <use xlink:href="#m97dd9c3903" x="35.67151" y="27.081578" style="stroke: #000000; stroke-width: 0.8"/>
      </g>
     </g>
     <g id="text_14">
      <text style="font-size: 14.5px; font-family: 'Arial', 'DejaVu Sans', sans-serif; text-anchor: end" x="28.67151" y="32.359776" transform="rotate(-0 28.67151 32.359776)">8</text>
     </g>
    </g>
    <g id="text_15">
     <text style="font-size: 14.5px; font-family: 'Arial', 'DejaVu Sans', sans-serif; text-anchor: middle" x="13.556636" y="147.38814" transform="rotate(-90 13.556636 147.38814)">Model score</text>
    </g>
   </g>
   <g id="line2d_27">
    <path d="M 35.67151 255.861269 
L 45.384618 241.218842 
L 51.361916 232.62782 
L 55.84489 226.548967 
L 60.327863 220.868556 
L 64.063674 216.48716 
L 67.799485 212.459967 
L 71.535296 208.811806 
L 74.523945 206.178308 
L 77.512594 203.804454 
L 80.501243 201.692716 
L 83.489892 199.842397 
L 86.478541 198.249639 
L 89.46719 196.907469 
L 92.455839 195.805889 
L 95.444488 194.93199 
L 98.433137 194.270112 
L 101.421786 193.80203 
L 105.157597 193.457921 
L 108.893408 193.339638 
L 113.376381 193.426611 
L 119.353679 193.780932 
L 129.066788 194.391887 
L 133.549761 194.460292 
L 137.285573 194.320716 
L 141.021384 193.950447 
L 144.010033 193.458262 
L 146.998681 192.769772 
L 149.98733 191.867073 
L 152.975979 190.734854 
L 155.964628 189.360578 
L 158.953277 187.73463 
L 161.941926 185.850443 
L 164.930575 183.704567 
L 167.919224 181.296718 
L 170.907873 178.629777 
L 173.896522 175.709757 
L 177.632333 171.717944 
L 181.368144 167.36925 
L 185.103955 162.694573 
L 189.586928 156.707224 
L 194.817064 149.296074 
L 201.541524 139.301336 
L 218.726255 113.461072 
L 223.956391 106.110912 
L 228.439364 100.190674 
L 232.175175 95.581011 
L 235.910987 91.304293 
L 239.646798 87.390061 
L 242.635447 84.535157 
L 245.624096 81.935196 
L 248.612744 79.59538 
L 251.601393 77.517769 
L 254.590042 75.701253 
L 257.578691 74.141564 
L 260.56734 72.831333 
L 263.555989 71.760173 
L 266.544638 70.914808 
L 269.533287 70.279232 
L 272.521936 69.834905 
L 276.257747 69.516471 
L 279.993558 69.418949 
L 284.476531 69.523805 
L 291.200991 69.94317 
L 300.166938 70.48655 
L 304.649912 70.535706 
L 308.385723 70.37431 
L 312.121534 69.977402 
L 315.110183 69.46077 
L 318.098832 68.745364 
L 321.087481 67.813606 
L 324.076129 66.650536 
L 327.064778 65.243989 
L 330.053427 63.584742 
L 333.042076 61.666628 
L 334.536401 60.609423 
L 334.536401 60.609423 
" clip-path="url(#pf3d9525f6a)" style="fill: none; stroke: #256b50; stroke-width: 2.2; stroke-linecap: square"/>
   </g>
   <g id="line2d_28">
    <path d="M 110.387732 197.817264 
L 112.629219 196.212911 
L 114.870706 194.608557 
L 117.112192 193.004204 
L 119.353679 191.399851 
L 121.595166 189.795497 
L 123.836652 188.191144 
L 126.078139 186.58679 
L 128.319626 184.982437 
L 130.561112 183.378083 
L 132.802599 181.77373 
L 135.044086 180.169376 
L 137.285573 178.565023 
L 139.527059 176.960669 
L 141.768546 175.356316 
L 144.010033 173.751962 
L 146.251519 172.147609 
L 148.493006 170.543255 
L 150.734493 168.938902 
L 152.975979 167.334548 
L 155.217466 165.730195 
L 157.458953 164.125842 
L 159.700439 162.521488 
L 161.941926 160.917135 
L 164.183413 159.312781 
L 166.424899 157.708428 
L 168.666386 156.104074 
L 170.907873 154.499721 
L 173.149359 152.895367 
L 175.390846 151.291014 
L 177.632333 149.68666 
L 179.873819 148.082307 
L 182.115306 146.477953 
L 184.356793 144.8736 
L 186.59828 143.269246 
L 188.839766 141.664893 
L 191.081253 140.06054 
L 193.32274 138.456186 
L 195.564226 136.851833 
L 197.805713 135.247479 
L 200.0472 133.643126 
L 202.288686 132.038772 
L 204.530173 130.434419 
L 206.77166 128.830065 
L 209.013146 127.225712 
L 211.254633 125.621358 
L 213.49612 124.017005 
L 215.737606 122.412651 
L 217.979093 120.808298 
L 220.22058 119.203944 
L 222.462066 117.599591 
L 224.703553 115.995238 
L 226.94504 114.390884 
L 229.186527 112.786531 
L 231.428013 111.182177 
L 233.6695 109.577824 
L 235.910987 107.97347 
L 238.152473 106.369117 
L 240.39396 104.764763 
L 242.635447 103.16041 
L 244.876933 101.556056 
L 247.11842 99.951703 
L 249.359907 98.347349 
L 251.601393 96.742996 
L 253.84288 95.138642 
L 256.084367 93.534289 
L 258.325853 91.929936 
L 260.56734 90.325582 
L 262.808827 88.721229 
L 265.050313 87.116875 
L 267.2918 85.512522 
L 269.533287 83.908168 
L 271.774773 82.303815 
L 274.01626 80.699461 
L 276.257747 79.095108 
L 278.499234 77.490754 
L 280.74072 75.886401 
L 282.982207 74.282047 
L 285.223694 72.677694 
L 287.46518 71.07334 
L 289.706667 69.468987 
L 291.948154 67.864634 
L 294.18964 66.26028 
L 296.431127 64.655927 
L 298.672614 63.051573 
L 300.9141 61.44722 
L 303.155587 59.842866 
L 305.397074 58.238513 
L 307.63856 56.634159 
L 309.880047 55.029806 
L 312.121534 53.425452 
L 314.36302 51.821099 
L 316.604507 50.216745 
L 318.845994 48.612392 
L 321.087481 47.008038 
L 323.328967 45.403685 
L 325.570454 43.799332 
L 327.811941 42.194978 
L 330.053427 40.590625 
L 332.294914 38.986271 
L 334.536401 37.381918 
" clip-path="url(#pf3d9525f6a)" style="fill: none; stroke-dasharray: 8.51,3.68; stroke-dashoffset: 0; stroke: #b7771a; stroke-width: 2.3"/>
   </g>
   <g id="line2d_29">
    <path d="M 259.820178 275.583656 
L 259.820178 19.192623 
" clip-path="url(#pf3d9525f6a)" style="fill: none; stroke-dasharray: 1,1.65; stroke-dashoffset: 0; stroke: #839386"/>
   </g>
   <g id="patch_3">
    <path d="M 35.67151 275.583656 
L 35.67151 19.192623 
" style="fill: none; stroke: #000000; stroke-width: 0.8; stroke-linejoin: miter; stroke-linecap: square"/>
   </g>
   <g id="patch_4">
    <path d="M 334.536401 275.583656 
L 334.536401 19.192623 
" style="fill: none; stroke: #000000; stroke-width: 0.8; stroke-linejoin: miter; stroke-linecap: square"/>
   </g>
   <g id="patch_5">
    <path d="M 35.67151 275.583656 
L 334.536401 275.583656 
" style="fill: none; stroke: #000000; stroke-width: 0.8; stroke-linejoin: miter; stroke-linecap: square"/>
   </g>
   <g id="patch_6">
    <path d="M 35.67151 19.192623 
L 334.536401 19.192623 
" style="fill: none; stroke: #000000; stroke-width: 0.8; stroke-linejoin: miter; stroke-linecap: square"/>
   </g>
   <g id="PathCollection_1">
    <path d="M 259.820178 78.613247 
C 261.272755 78.613247 262.666034 78.036132 263.693161 77.009005 
C 264.720288 75.981878 265.297403 74.588599 265.297403 73.136022 
C 265.297403 71.683444 264.720288 70.290165 263.693161 69.263038 
C 262.666034 68.235911 261.272755 67.658796 259.820178 67.658796 
C 258.367601 67.658796 256.974322 68.235911 255.947195 69.263038 
C 254.920067 70.290165 254.342952 71.683444 254.342952 73.136022 
C 254.342952 74.588599 254.920067 75.981878 255.947195 77.009005 
C 256.974322 78.036132 258.367601 78.613247 259.820178 78.613247 
z
" clip-path="url(#pf3d9525f6a)" style="fill: #386fa4; fill-opacity: 0.75; stroke: #386fa4; stroke-opacity: 0.75"/>
    <path d="M 222.490598 113.273376 
C 223.855298 113.273376 225.164288 112.731175 226.129276 111.766186 
C 227.094265 110.801197 227.636466 109.492208 227.636466 108.127507 
C 227.636466 106.762807 227.094265 105.453818 226.129276 104.488829 
C 225.164288 103.52384 223.855298 102.981639 222.490598 102.981639 
C 221.125898 102.981639 219.816908 103.52384 218.85192 104.488829 
C 217.886931 105.453818 217.34473 106.762807 217.34473 108.127507 
C 217.34473 109.492208 217.886931 110.801197 218.85192 111.766186 
C 219.816908 112.731175 221.125898 113.273376 222.490598 113.273376 
z
" clip-path="url(#pf3d9525f6a)" style="fill: #386fa4; fill-opacity: 0.75; stroke: #386fa4; stroke-opacity: 0.75"/>
    <path d="M 303.817214 75.566784 
C 305.149175 75.566784 306.426761 75.037591 307.368599 74.095753 
C 308.310437 73.153915 308.83963 71.876329 308.83963 70.544368 
C 308.83963 69.212408 308.310437 67.934822 307.368599 66.992984 
C 306.426761 66.051146 305.149175 65.521953 303.817214 65.521953 
C 302.485254 65.521953 301.207668 66.051146 300.26583 66.992984 
C 299.323992 67.934822 298.794799 69.212408 298.794799 70.544368 
C 298.794799 71.876329 299.323992 73.153915 300.26583 74.095753 
C 301.207668 75.037591 302.485254 75.566784 303.817214 75.566784 
z
" clip-path="url(#pf3d9525f6a)" style="fill: #386fa4; fill-opacity: 0.75; stroke: #386fa4; stroke-opacity: 0.75"/>
    <path d="M 267.496729 76.153188 
C 268.945478 76.153188 270.335085 75.577594 271.359505 74.553174 
C 272.383925 73.528754 272.959519 72.139147 272.959519 70.690398 
C 272.959519 69.241649 272.383925 67.852042 271.359505 66.827622 
C 270.335085 65.803202 268.945478 65.227608 267.496729 65.227608 
C 266.04798 65.227608 264.658373 65.803202 263.633953 66.827622 
C 262.609533 67.852042 262.033939 69.241649 262.033939 70.690398 
C 262.033939 72.139147 262.609533 73.528754 263.633953 74.553174 
C 264.658373 75.577594 266.04798 76.153188 267.496729 76.153188 
z
" clip-path="url(#pf3d9525f6a)" style="fill: #386fa4; fill-opacity: 0.75; stroke: #386fa4; stroke-opacity: 0.75"/>
    <path d="M 102.978032 195.448507 
C 103.460765 195.448507 103.923792 195.256715 104.265136 194.915371 
C 104.60648 194.574027 104.798272 194.111 104.798272 193.628267 
C 104.798272 193.145533 104.60648 192.682506 104.265136 192.341162 
C 103.923792 191.999818 103.460765 191.808026 102.978032 191.808026 
C 102.495298 191.808026 102.032271 191.999818 101.690927 192.341162 
C 101.349583 192.682506 101.157791 193.145533 101.157791 193.628267 
C 101.157791 194.111 101.349583 194.574027 101.690927 194.915371 
C 102.032271 195.256715 102.495298 195.448507 102.978032 195.448507 
z
" clip-path="url(#pf3d9525f6a)" style="fill: #386fa4; fill-opacity: 0.75; stroke: #386fa4; stroke-opacity: 0.75"/>
    <path d="M 125.380674 196.640777 
C 126.027251 196.640777 126.647434 196.383889 127.104633 195.92669 
C 127.561832 195.46949 127.81872 194.849308 127.81872 194.20273 
C 127.81872 193.556153 127.561832 192.93597 127.104633 192.478771 
C 126.647434 192.021571 126.027251 191.764683 125.380674 191.764683 
C 124.734096 191.764683 124.113914 192.021571 123.656714 192.478771 
C 123.199515 192.93597 122.942627 193.556153 122.942627 194.20273 
C 122.942627 194.849308 123.199515 195.46949 123.656714 195.92669 
C 124.113914 196.383889 124.734096 196.640777 125.380674 196.640777 
z
" clip-path="url(#pf3d9525f6a)" style="fill: #386fa4; fill-opacity: 0.75; stroke: #386fa4; stroke-opacity: 0.75"/>
    <path d="M 296.745965 75.475835 
C 298.112499 75.475835 299.423247 74.932905 300.389532 73.96662 
C 301.355818 73.000334 301.898747 71.689586 301.898747 70.323052 
C 301.898747 68.956518 301.355818 67.64577 300.389532 66.679485 
C 299.423247 65.713199 298.112499 65.17027 296.745965 65.17027 
C 295.379431 65.17027 294.068683 65.713199 293.102397 66.679485 
C 292.136112 67.64577 291.593182 68.956518 291.593182 70.323052 
C 291.593182 71.689586 292.136112 73.000334 293.102397 73.96662 
C 294.068683 74.932905 295.379431 75.475835 296.745965 75.475835 
z
" clip-path="url(#pf3d9525f6a)" style="fill: #386fa4; fill-opacity: 0.75; stroke: #386fa4; stroke-opacity: 0.75"/>
    <path d="M 37.245124 254.058925 
C 37.403121 254.058925 37.554668 253.996152 37.666389 253.884431 
C 37.77811 253.772711 37.840882 253.621164 37.840882 253.463167 
C 37.840882 253.30517 37.77811 253.153623 37.666389 253.041902 
C 37.554668 252.930181 37.403121 252.867408 37.245124 252.867408 
C 37.087127 252.867408 36.93558 252.930181 36.82386 253.041902 
C 36.712139 253.153623 36.649366 253.30517 36.649366 253.463167 
C 36.649366 253.621164 36.712139 253.772711 36.82386 253.884431 
C 36.93558 253.996152 37.087127 254.058925 37.245124 254.058925 
z
" clip-path="url(#pf3d9525f6a)" style="fill: #386fa4; fill-opacity: 0.75; stroke: #386fa4; stroke-opacity: 0.75"/>
    <path d="M 281.107851 74.792598 
C 282.531247 74.792598 283.896536 74.227077 284.903029 73.220584 
C 285.909522 72.214092 286.475043 70.848803 286.475043 69.425407 
C 286.475043 68.002011 285.909522 66.636722 284.903029 65.63023 
C 283.896536 64.623737 282.531247 64.058216 281.107851 64.058216 
C 279.684456 64.058216 278.319167 64.623737 277.312674 65.63023 
C 276.306181 66.636722 275.74066 68.002011 275.74066 69.425407 
C 275.74066 70.848803 276.306181 72.214092 277.312674 73.220584 
C 278.319167 74.227077 279.684456 74.792598 281.107851 74.792598 
z
" clip-path="url(#pf3d9525f6a)" style="fill: #386fa4; fill-opacity: 0.75; stroke: #386fa4; stroke-opacity: 0.75"/>
    <path d="M 273.887578 75.118829 
C 275.327339 75.118829 276.708325 74.546805 277.72639 73.528741 
C 278.744455 72.510676 279.316478 71.12969 279.316478 69.689928 
C 279.316478 68.250167 278.744455 66.869181 277.72639 65.851116 
C 276.708325 64.833051 275.327339 64.261028 273.887578 64.261028 
C 272.447816 64.261028 271.06683 64.833051 270.048765 65.851116 
C 269.030701 66.869181 268.458677 68.250167 268.458677 69.689928 
C 268.458677 71.12969 269.030701 72.510676 270.048765 73.528741 
C 271.06683 74.546805 272.447816 75.118829 273.887578 75.118829 
z
" clip-path="url(#pf3d9525f6a)" style="fill: #386fa4; fill-opacity: 0.75; stroke: #386fa4; stroke-opacity: 0.75"/>
    <path d="M 175.520838 178.003971 
C 176.577481 178.003971 177.590989 177.584162 178.338148 176.837003 
C 179.085307 176.089844 179.505115 175.076336 179.505115 174.019693 
C 179.505115 172.963051 179.085307 171.949543 178.338148 171.202384 
C 177.590989 170.455225 176.577481 170.035416 175.520838 170.035416 
C 174.464196 170.035416 173.450688 170.455225 172.703529 171.202384 
C 171.95637 171.949543 171.536561 172.963051 171.536561 174.019693 
C 171.536561 175.076336 171.95637 176.089844 172.703529 176.837003 
C 173.450688 177.584162 174.464196 178.003971 175.520838 178.003971 
z
" clip-path="url(#pf3d9525f6a)" style="fill: #386fa4; fill-opacity: 0.75; stroke: #386fa4; stroke-opacity: 0.75"/>
    <path d="M 126.237263 196.717559 
C 126.890522 196.717559 127.517114 196.458016 127.979038 195.996092 
C 128.440963 195.534167 128.700505 194.907576 128.700505 194.254316 
C 128.700505 193.601056 128.440963 192.974465 127.979038 192.51254 
C 127.517114 192.050616 126.890522 191.791073 126.237263 191.791073 
C 125.584003 191.791073 124.957411 192.050616 124.495487 192.51254 
C 124.033563 192.974465 123.77402 193.601056 123.77402 194.254316 
C 123.77402 194.907576 124.033563 195.534167 124.495487 195.996092 
C 124.957411 196.458016 125.584003 196.717559 126.237263 196.717559 
z
" clip-path="url(#pf3d9525f6a)" style="fill: #386fa4; fill-opacity: 0.75; stroke: #386fa4; stroke-opacity: 0.75"/>
    <path d="M 118.88315 195.99802 
C 119.47994 195.99802 120.052367 195.760913 120.474361 195.338919 
C 120.896355 194.916925 121.133462 194.344497 121.133462 193.747707 
C 121.133462 193.150918 120.896355 192.57849 120.474361 192.156496 
C 120.052367 191.734502 119.47994 191.497395 118.88315 191.497395 
C 118.28636 191.497395 117.713933 191.734502 117.291939 192.156496 
C 116.869944 192.57849 116.632837 193.150918 116.632837 193.747707 
C 116.632837 194.344497 116.869944 194.916925 117.291939 195.338919 
C 117.713933 195.760913 118.28636 195.99802 118.88315 195.99802 
z
" clip-path="url(#pf3d9525f6a)" style="fill: #386fa4; fill-opacity: 0.75; stroke: #386fa4; stroke-opacity: 0.75"/>
    <path d="M 111.843081 195.428148 
C 112.387913 195.428148 112.910504 195.211684 113.295759 194.826429 
C 113.681014 194.441174 113.897478 193.918584 113.897478 193.373751 
C 113.897478 192.828919 113.681014 192.306328 113.295759 191.921074 
C 112.910504 191.535819 112.387913 191.319355 111.843081 191.319355 
C 111.298249 191.319355 110.775658 191.535819 110.390403 191.921074 
C 110.005149 192.306328 109.788684 192.828919 109.788684 193.373751 
C 109.788684 193.918584 110.005149 194.441174 110.390403 194.826429 
C 110.775658 195.211684 111.298249 195.428148 111.843081 195.428148 
z
" clip-path="url(#pf3d9525f6a)" style="fill: #386fa4; fill-opacity: 0.75; stroke: #386fa4; stroke-opacity: 0.75"/>
    <path d="M 168.689191 184.410296 
C 169.690618 184.410296 170.651163 184.012425 171.359279 183.30431 
C 172.067394 182.596194 172.465265 181.635649 172.465265 180.634222 
C 172.465265 179.632796 172.067394 178.67225 171.359279 177.964135 
C 170.651163 177.256019 169.690618 176.858148 168.689191 176.858148 
C 167.687765 176.858148 166.727219 177.256019 166.019104 177.964135 
C 165.310988 178.67225 164.913117 179.632796 164.913117 180.634222 
C 164.913117 181.635649 165.310988 182.596194 166.019104 183.30431 
C 166.727219 184.012425 167.687765 184.410296 168.689191 184.410296 
z
" clip-path="url(#pf3d9525f6a)" style="fill: #386fa4; fill-opacity: 0.75; stroke: #386fa4; stroke-opacity: 0.75"/>
    <path d="M 186.46327 165.224114 
C 187.604781 165.224114 188.699693 164.770587 189.506863 163.963416 
C 190.314034 163.156246 190.767561 162.061334 190.767561 160.919823 
C 190.767561 159.778312 190.314034 158.6834 189.506863 157.87623 
C 188.699693 157.069059 187.604781 156.615532 186.46327 156.615532 
C 185.321759 156.615532 184.226847 157.069059 183.419677 157.87623 
C 182.612506 158.6834 182.158979 159.778312 182.158979 160.919823 
C 182.158979 162.061334 182.612506 163.156246 183.419677 163.963416 
C 184.226847 164.770587 185.321759 165.224114 186.46327 165.224114 
z
" clip-path="url(#pf3d9525f6a)" style="fill: #386fa4; fill-opacity: 0.75; stroke: #386fa4; stroke-opacity: 0.75"/>
    <path d="M 201.092435 144.673049 
C 202.337125 144.673049 203.531003 144.178528 204.411131 143.2984 
C 205.29126 142.418271 205.78578 141.224393 205.78578 139.979704 
C 205.78578 138.735014 205.29126 137.541136 204.411131 136.661008 
C 203.531003 135.780879 202.337125 135.286359 201.092435 135.286359 
C 199.847746 135.286359 198.653868 135.780879 197.773739 136.661008 
C 196.893611 137.541136 196.39909 138.735014 196.39909 139.979704 
C 196.39909 141.224393 196.893611 142.418271 197.773739 143.2984 
C 198.653868 144.178528 199.847746 144.673049 201.092435 144.673049 
z
" clip-path="url(#pf3d9525f6a)" style="fill: #386fa4; fill-opacity: 0.75; stroke: #386fa4; stroke-opacity: 0.75"/>
    <path d="M 333.191593 65.867682 
C 334.332996 65.867682 335.427803 65.414198 336.234897 64.607104 
C 337.04199 63.800011 337.495474 62.705204 337.495474 61.563801 
C 337.495474 60.422398 337.04199 59.327591 336.234897 58.520498 
C 335.427803 57.713404 334.332996 57.25992 333.191593 57.25992 
C 332.050191 57.25992 330.955383 57.713404 330.14829 58.520498 
C 329.341197 59.327591 328.887712 60.422398 328.887712 61.563801 
C 328.887712 62.705204 329.341197 63.800011 330.14829 64.607104 
C 330.955383 65.414198 332.050191 65.867682 333.191593 65.867682 
z
" clip-path="url(#pf3d9525f6a)" style="fill: #386fa4; fill-opacity: 0.75; stroke: #386fa4; stroke-opacity: 0.75"/>
    <path d="M 272.570328 75.266667 
C 274.012368 75.266667 275.395541 74.693738 276.415217 73.674062 
C 277.434894 72.654385 278.007823 71.271212 278.007823 69.829172 
C 278.007823 68.387131 277.434894 67.003959 276.415217 65.984282 
C 275.395541 64.964605 274.012368 64.391677 272.570328 64.391677 
C 271.128287 64.391677 269.745115 64.964605 268.725438 65.984282 
C 267.705761 67.003959 267.132832 68.387131 267.132832 69.829172 
C 267.132832 71.271212 267.705761 72.654385 268.725438 73.674062 
C 269.745115 74.693738 271.128287 75.266667 272.570328 75.266667 
z
" clip-path="url(#pf3d9525f6a)" style="fill: #386fa4; fill-opacity: 0.75; stroke: #386fa4; stroke-opacity: 0.75"/>
    <path d="M 221.619037 114.4742 
C 222.97972 114.4742 224.284856 113.933595 225.247004 112.971446 
C 226.209153 112.009298 226.749758 110.704162 226.749758 109.343479 
C 226.749758 107.982796 226.209153 106.67766 225.247004 105.715512 
C 224.284856 104.753364 222.97972 104.212759 221.619037 104.212759 
C 220.258354 104.212759 218.953218 104.753364 217.99107 105.715512 
C 217.028922 106.67766 216.488317 107.982796 216.488317 109.343479 
C 216.488317 110.704162 217.028922 112.009298 217.99107 112.971446 
C 218.953218 113.933595 220.258354 114.4742 221.619037 114.4742 
z
" clip-path="url(#pf3d9525f6a)" style="fill: #386fa4; fill-opacity: 0.75; stroke: #386fa4; stroke-opacity: 0.75"/>
    <path d="M 331.236976 67.215113 
C 332.392937 67.215113 333.501708 66.755845 334.319095 65.938458 
C 335.136483 65.12107 335.595751 64.012299 335.595751 62.856339 
C 335.595751 61.700379 335.136483 60.591608 334.319095 59.77422 
C 333.501708 58.956833 332.392937 58.497565 331.236976 58.497565 
C 330.081016 58.497565 328.972245 58.956833 328.154858 59.77422 
C 327.33747 60.591608 326.878202 61.700379 326.878202 62.856339 
C 326.878202 64.012299 327.33747 65.12107 328.154858 65.938458 
C 328.972245 66.755845 330.081016 67.215113 331.236976 67.215113 
z
" clip-path="url(#pf3d9525f6a)" style="fill: #386fa4; fill-opacity: 0.75; stroke: #386fa4; stroke-opacity: 0.75"/>
    <path d="M 100.01972 195.744207 
C 100.482622 195.744207 100.926627 195.560294 101.253949 195.232972 
C 101.58127 194.905651 101.765183 194.461646 101.765183 193.998744 
C 101.765183 193.535842 101.58127 193.091837 101.253949 192.764516 
C 100.926627 192.437195 100.482622 192.253282 100.01972 192.253282 
C 99.556818 192.253282 99.112813 192.437195 98.785492 192.764516 
C 98.458171 193.091837 98.274258 193.535842 98.274258 193.998744 
C 98.274258 194.461646 98.458171 194.905651 98.785492 195.232972 
C 99.112813 195.560294 99.556818 195.744207 100.01972 195.744207 
z
" clip-path="url(#pf3d9525f6a)" style="fill: #386fa4; fill-opacity: 0.75; stroke: #386fa4; stroke-opacity: 0.75"/>
    <path d="M 83.553262 201.168306 
C 83.914557 201.168306 84.261103 201.024762 84.516577 200.769287 
C 84.772051 200.513813 84.915595 200.167267 84.915595 199.805972 
C 84.915595 199.444677 84.772051 199.098131 84.516577 198.842656 
C 84.261103 198.587182 83.914557 198.443638 83.553262 198.443638 
C 83.191966 198.443638 82.84542 198.587182 82.589946 198.842656 
C 82.334472 199.098131 82.190928 199.444677 82.190928 199.805972 
C 82.190928 200.167267 82.334472 200.513813 82.589946 200.769287 
C 82.84542 201.024762 83.191966 201.168306 83.553262 201.168306 
z
" clip-path="url(#pf3d9525f6a)" style="fill: #386fa4; fill-opacity: 0.75; stroke: #386fa4; stroke-opacity: 0.75"/>
    <path d="M 218.738092 118.522495 
C 220.084927 118.522495 221.376781 117.987392 222.329138 117.035035 
C 223.281495 116.082678 223.816598 114.790824 223.816598 113.443989 
C 223.816598 112.097153 223.281495 110.805299 222.329138 109.852942 
C 221.376781 108.900585 220.084927 108.365482 218.738092 108.365482 
C 217.391256 108.365482 216.099402 108.900585 215.147045 109.852942 
C 214.194689 110.805299 213.659585 112.097153 213.659585 113.443989 
C 213.659585 114.790824 214.194689 116.082678 215.147045 117.035035 
C 216.099402 117.987392 217.391256 118.522495 218.738092 118.522495 
z
" clip-path="url(#pf3d9525f6a)" style="fill: #386fa4; fill-opacity: 0.75; stroke: #386fa4; stroke-opacity: 0.75"/>
    <path d="M 48.804233 236.991118 
C 49.001987 236.991118 49.191668 236.91255 49.331501 236.772716 
C 49.471334 236.632883 49.549902 236.443202 49.549902 236.245449 
C 49.549902 236.047695 49.471334 235.858014 49.331501 235.718181 
C 49.191668 235.578348 49.001987 235.499779 48.804233 235.499779 
C 48.606479 235.499779 48.416798 235.578348 48.276965 235.718181 
C 48.137132 235.858014 48.058563 236.047695 48.058563 236.245449 
C 48.058563 236.443202 48.137132 236.632883 48.276965 236.772716 
C 48.416798 236.91255 48.606479 236.991118 48.804233 236.991118 
z
" clip-path="url(#pf3d9525f6a)" style="fill: #386fa4; fill-opacity: 0.75; stroke: #386fa4; stroke-opacity: 0.75"/>
   </g>
   <g id="text_16">
    <text style="font-size: 14px; font-family: 'Arial', 'DejaVu Sans', sans-serif; text-anchor: middle" x="185.103955" y="13.192623" transform="rotate(-0 185.103955 13.192623)">x = 7.5 h; width = 2.5 h</text>
   </g>
   <g id="PathCollection_2">
    <defs>
     <path id="m16f19e567c" d="M 0 -5.700877 
L -1.279927 -1.761668 
L -5.421856 -1.761668 
L -2.070965 0.672897 
L -3.350891 4.612106 
L -0 2.177541 
L 3.350891 4.612106 
L 2.070965 0.672897 
L 5.421856 -1.761668 
L 1.279927 -1.761668 
z
" style="stroke: #8b4c2c"/>
    </defs>
    <g clip-path="url(#pf3d9525f6a)">
     <use xlink:href="#m16f19e567c" x="259.820178" y="73.136022" style="fill: #8b4c2c; stroke: #8b4c2c"/>
    </g>
   </g>
   <g id="legend_1">
    <g id="patch_7">
     <path d="M 44.07151 97.839732 
L 180.96151 97.839732 
Q 183.36151 97.839732 183.36151 95.439732 
L 183.36151 27.592623 
Q 183.36151 25.192623 180.96151 25.192623 
L 44.07151 25.192623 
Q 41.67151 25.192623 41.67151 27.592623 
L 41.67151 95.439732 
Q 41.67151 97.839732 44.07151 97.839732 
z
" style="fill: #ffffff; opacity: 0.95; stroke: #cccccc; stroke-linejoin: miter"/>
    </g>
    <g id="line2d_30">
     <path d="M 46.47151 34.528951 
L 58.47151 34.528951 
L 70.47151 34.528951 
" style="fill: none; stroke: #256b50; stroke-width: 2.2; stroke-linecap: square"/>
    </g>
    <g id="text_17">
     <text style="font-size: 12px; font-family: 'Arial', 'DejaVu Sans', sans-serif; text-anchor: start" x="80.07151" y="38.728951" transform="rotate(-0 80.07151 38.728951)">Fixed model</text>
    </g>
    <g id="PathCollection_3">
     <defs>
      <path id="mf151dc37b3" d="M 0 3.895826 
C 1.033185 3.895826 2.024193 3.485338 2.754765 2.754765 
C 3.485338 2.024193 3.895826 1.033185 3.895826 0 
C 3.895826 -1.033185 3.485338 -2.024193 2.754765 -2.754765 
C 2.024193 -3.485338 1.033185 -3.895826 0 -3.895826 
C -1.033185 -3.895826 -2.024193 -3.485338 -2.754765 -2.754765 
C -3.485338 -2.024193 -3.895826 -1.033185 -3.895826 0 
C -3.895826 1.033185 -3.485338 2.024193 -2.754765 2.754765 
C -2.024193 3.485338 -1.033185 3.895826 0 3.895826 
z
" style="stroke: #386fa4; stroke-opacity: 0.75"/>
     </defs>
     <g>
      <use xlink:href="#mf151dc37b3" x="58.47151" y="52.84067" style="fill: #386fa4; fill-opacity: 0.75; stroke: #386fa4; stroke-opacity: 0.75"/>
     </g>
    </g>
    <g id="text_18">
     <text style="font-size: 12px; font-family: 'Arial', 'DejaVu Sans', sans-serif; text-anchor: start" x="80.07151" y="55.99067" transform="rotate(-0 80.07151 55.99067)">Weighted samples</text>
    </g>
    <g id="line2d_31">
     <path d="M 46.47151 69.052623 
L 58.47151 69.052623 
L 70.47151 69.052623 
" style="fill: none; stroke-dasharray: 8.51,3.68; stroke-dashoffset: 0; stroke: #b7771a; stroke-width: 2.3"/>
    </g>
    <g id="text_19">
     <text style="font-size: 12px; font-family: 'Arial', 'DejaVu Sans', sans-serif; text-anchor: start" x="80.07151" y="73.252623" transform="rotate(-0 80.07151 73.252623)">Fitted line</text>
    </g>
    <g id="PathCollection_4">
     <g>
      <use xlink:href="#m16f19e567c" x="58.47151" y="87.364342" style="fill: #8b4c2c; stroke: #8b4c2c"/>
     </g>
    </g>
    <g id="text_20">
     <text style="font-size: 12px; font-family: 'Arial', 'DejaVu Sans', sans-serif; text-anchor: start" x="80.07151" y="90.514342" transform="rotate(-0 80.07151 90.514342)">Explained row</text>
    </g>
   </g>
  </g>
 </g>
 <defs>
  <clipPath id="pf3d9525f6a">
   <rect x="35.67151" y="19.192623" width="298.864891" height="256.391034"/>
  </clipPath>
 </defs>
</svg>
